%TF.GenerationSoftware,KiCad,Pcbnew,10.0.3*%
%TF.CreationDate,2026-06-29T14:01:57-05:00*%
%TF.ProjectId,reactive-led-board,72656163-7469-4766-952d-6c65642d626f,rev?*%
%TF.SameCoordinates,Original*%
%TF.FileFunction,Copper,L1,Top*%
%TF.FilePolarity,Positive*%
%FSLAX46Y46*%
G04 Gerber Fmt 4.6, Leading zero omitted, Abs format (unit mm)*
G04 Created by KiCad (PCBNEW 10.0.3) date 2026-06-29 14:01:57*
%MOMM*%
%LPD*%
G01*
G04 APERTURE LIST*
G04 Aperture macros list*
%AMRoundRect*
0 Rectangle with rounded corners*
0 $1 Rounding radius*
0 $2 $3 $4 $5 $6 $7 $8 $9 X,Y pos of 4 corners*
0 Add a 4 corners polygon primitive as box body*
4,1,4,$2,$3,$4,$5,$6,$7,$8,$9,$2,$3,0*
0 Add four circle primitives for the rounded corners*
1,1,$1+$1,$2,$3*
1,1,$1+$1,$4,$5*
1,1,$1+$1,$6,$7*
1,1,$1+$1,$8,$9*
0 Add four rect primitives between the rounded corners*
20,1,$1+$1,$2,$3,$4,$5,0*
20,1,$1+$1,$4,$5,$6,$7,0*
20,1,$1+$1,$6,$7,$8,$9,0*
20,1,$1+$1,$8,$9,$2,$3,0*%
G04 Aperture macros list end*
%TA.AperFunction,ComponentPad*%
%ADD10C,1.950000*%
%TD*%
%TA.AperFunction,ComponentPad*%
%ADD11R,1.700000X1.700000*%
%TD*%
%TA.AperFunction,ComponentPad*%
%ADD12C,1.700000*%
%TD*%
%TA.AperFunction,ComponentPad*%
%ADD13R,1.295400X1.295400*%
%TD*%
%TA.AperFunction,ComponentPad*%
%ADD14C,1.295400*%
%TD*%
%TA.AperFunction,SMDPad,CuDef*%
%ADD15RoundRect,0.152400X1.063600X0.609600X-1.063600X0.609600X-1.063600X-0.609600X1.063600X-0.609600X0*%
%TD*%
%TA.AperFunction,ComponentPad*%
%ADD16C,1.524000*%
%TD*%
%TA.AperFunction,SMDPad,CuDef*%
%ADD17RoundRect,0.152400X-1.063600X-0.609600X1.063600X-0.609600X1.063600X0.609600X-1.063600X0.609600X0*%
%TD*%
%TA.AperFunction,ComponentPad*%
%ADD18C,1.500000*%
%TD*%
%TA.AperFunction,ComponentPad*%
%ADD19RoundRect,0.250000X-0.550000X0.550000X-0.550000X-0.550000X0.550000X-0.550000X0.550000X0.550000X0*%
%TD*%
%TA.AperFunction,ComponentPad*%
%ADD20C,1.600000*%
%TD*%
%TA.AperFunction,ComponentPad*%
%ADD21C,1.400000*%
%TD*%
%TA.AperFunction,ViaPad*%
%ADD22C,0.600000*%
%TD*%
%TA.AperFunction,Conductor*%
%ADD23C,0.200000*%
%TD*%
G04 APERTURE END LIST*
D10*
%TO.P,J1,1,Pin_1_1*%
%TO.N,GND*%
X78190000Y-70350000D03*
%TO.P,J1,2,Pin_2_2*%
%TO.N,LED-DATA*%
X78190000Y-65350000D03*
%TO.P,J1,3,Pin_3_3*%
%TO.N,+5V*%
X78190000Y-60350000D03*
%TD*%
D11*
%TO.P,J2,1,Pin_1_1*%
%TO.N,+3V3*%
X54920000Y-60710000D03*
D12*
%TO.P,J2,2,Pin_2_2*%
%TO.N,GND*%
X54920000Y-63250000D03*
%TO.P,J2,3,Pin_3_3*%
%TO.N,BCLK*%
X54920000Y-65790000D03*
%TO.P,J2,4,Pin_4_4*%
%TO.N,DOUT*%
X54920000Y-68330000D03*
%TO.P,J2,5,Pin_5_5*%
%TO.N,WS*%
X54920000Y-70870000D03*
%TO.P,J2,6,Pin_6_6*%
%TO.N,unconnected-(J2-Pin_6-Pad6)*%
X54920000Y-73410000D03*
%TD*%
D13*
%TO.P,U2,1,\u002A1OE_1*%
%TO.N,GND*%
X61330000Y-61460000D03*
D14*
%TO.P,U2,2,1A_2*%
%TO.N,D4*%
X61330000Y-64000000D03*
%TO.P,U2,3,1Y_3*%
%TO.N,Net-(U2-1Y)*%
X61330000Y-66540000D03*
%TO.P,U2,4,\u002A2OE_4*%
%TO.N,GND*%
X61330000Y-69080000D03*
%TO.P,U2,5,2A_5*%
X61330000Y-71620000D03*
%TO.P,U2,6,2Y_6*%
%TO.N,unconnected-(U2-2Y-Pad6)*%
X61330000Y-74160000D03*
%TO.P,U2,7,GND_7*%
%TO.N,GND*%
X61330000Y-76700000D03*
%TO.P,U2,8,3Y_8*%
%TO.N,unconnected-(U2-3Y-Pad8)*%
X68950000Y-76700000D03*
%TO.P,U2,9,3A_9*%
%TO.N,GND*%
X68950000Y-74160000D03*
%TO.P,U2,10,\u002A3OE_10*%
X68950000Y-71620000D03*
%TO.P,U2,11,4Y_11*%
%TO.N,unconnected-(U2-4Y-Pad11)*%
X68950000Y-69080000D03*
%TO.P,U2,12,4A_12*%
%TO.N,GND*%
X68950000Y-66540000D03*
%TO.P,U2,13,\u002A4OE_13*%
X68950000Y-64000000D03*
%TO.P,U2,14,VCC_14*%
%TO.N,+5V*%
X68950000Y-61460000D03*
%TD*%
D15*
%TO.P,U1,1,GPIO1_A0_D0_1*%
%TO.N,BCLK*%
X50845000Y-35870000D03*
D16*
X51680000Y-35870000D03*
D15*
%TO.P,U1,2,GPIO2_A1_D1_2*%
%TO.N,DOUT*%
X50845000Y-38410000D03*
D16*
X51680000Y-38410000D03*
D15*
%TO.P,U1,3,GPIO3_A2_D2_3*%
%TO.N,WS*%
X50845000Y-40950000D03*
D16*
X51680000Y-40950000D03*
D15*
%TO.P,U1,4,GPIO4_A3_D3_4*%
%TO.N,unconnected-(U1-GPIO4_A3_D3-Pad4)_1*%
X50845000Y-43490000D03*
D16*
%TO.N,unconnected-(U1-GPIO4_A3_D3-Pad4)*%
X51680000Y-43490000D03*
D15*
%TO.P,U1,5,GPIO5_A4_D4_SDA_5*%
%TO.N,D4*%
X50845000Y-46030000D03*
D16*
X51680000Y-46030000D03*
D15*
%TO.P,U1,6,GPIO6_A5_D5_SCL_6*%
%TO.N,unconnected-(U1-GPIO6_A5_D5_SCL-Pad6)_1*%
X50845000Y-48570000D03*
D16*
%TO.N,unconnected-(U1-GPIO6_A5_D5_SCL-Pad6)*%
X51680000Y-48570000D03*
D15*
%TO.P,U1,7,GPIO43_D6_TX_7*%
%TO.N,unconnected-(U1-GPIO43_D6_TX-Pad7)*%
X50845000Y-51110000D03*
D16*
%TO.N,unconnected-(U1-GPIO43_D6_TX-Pad7)_1*%
X51680000Y-51110000D03*
%TO.P,U1,8,GPIO44_D7_RX_8*%
%TO.N,unconnected-(U1-GPIO44_D7_RX-Pad8)_1*%
X66920000Y-51110000D03*
D17*
%TO.N,unconnected-(U1-GPIO44_D7_RX-Pad8)*%
X67755000Y-51110000D03*
D16*
%TO.P,U1,9,GPIO7_A8_D8_SCK_9*%
%TO.N,unconnected-(U1-GPIO7_A8_D8_SCK-Pad9)*%
X66920000Y-48570000D03*
D17*
%TO.N,unconnected-(U1-GPIO7_A8_D8_SCK-Pad9)_1*%
X67755000Y-48570000D03*
D16*
%TO.P,U1,10,GPIO8_A9_D9_MISO_10*%
%TO.N,unconnected-(U1-GPIO8_A9_D9_MISO-Pad10)_1*%
X66920000Y-46030000D03*
D17*
%TO.N,unconnected-(U1-GPIO8_A9_D9_MISO-Pad10)*%
X67755000Y-46030000D03*
D16*
%TO.P,U1,11,GPIO9_A10_D10_MOSI_11*%
%TO.N,unconnected-(U1-GPIO9_A10_D10_MOSI-Pad11)_1*%
X66920000Y-43490000D03*
D17*
%TO.N,unconnected-(U1-GPIO9_A10_D10_MOSI-Pad11)*%
X67755000Y-43490000D03*
D16*
%TO.P,U1,12,3V3_12*%
%TO.N,+3V3*%
X66920000Y-40950000D03*
D17*
X67755000Y-40950000D03*
D16*
%TO.P,U1,13,GND_13*%
%TO.N,GND*%
X66920000Y-38410000D03*
D17*
X67755000Y-38410000D03*
D16*
%TO.P,U1,14,VBUS_14*%
%TO.N,+5V*%
X66920000Y-35870000D03*
D17*
X67755000Y-35870000D03*
%TD*%
D18*
%TO.P,C1,1*%
%TO.N,+5V*%
X67400000Y-56910000D03*
%TO.P,C1,2*%
%TO.N,GND*%
X62400000Y-56910000D03*
%TD*%
D19*
%TO.P,C3,1*%
%TO.N,+3V3*%
X74910000Y-44350000D03*
D20*
%TO.P,C3,2*%
%TO.N,GND*%
X74910000Y-47850000D03*
%TD*%
D19*
%TO.P,C2,1*%
%TO.N,+5V*%
X75140000Y-35470000D03*
D20*
%TO.P,C2,2*%
%TO.N,GND*%
X75140000Y-38970000D03*
%TD*%
D21*
%TO.P,R1,1*%
%TO.N,Net-(U2-1Y)*%
X71090000Y-65420000D03*
%TO.P,R1,2*%
%TO.N,LED-DATA*%
X72990000Y-65420000D03*
%TD*%
D22*
%TO.N,BCLK*%
X54780000Y-50880000D03*
%TD*%
%TO.N,+5V*%
D23*
X68950000Y-61460000D02*
X68950000Y-58460000D01*
X68950000Y-58460000D02*
X67400000Y-56910000D01*
X78190000Y-60350000D02*
X70060000Y-60350000D01*
X70060000Y-60350000D02*
X68950000Y-61460000D01*
%TO.N,BCLK*%
X54780000Y-38970000D02*
X54780000Y-50880000D01*
X51680000Y-35870000D02*
X54780000Y-38970000D01*
%TO.N,DOUT*%
X54920000Y-68330000D02*
X53770000Y-67180000D01*
X53770000Y-67180000D02*
X53770000Y-40500000D01*
X53770000Y-40500000D02*
X51680000Y-38410000D01*
%TO.N,WS*%
X51680000Y-40950000D02*
X52742000Y-42012000D01*
X52742000Y-42012000D02*
X52742000Y-68692000D01*
X52742000Y-68692000D02*
X54920000Y-70870000D01*
%TO.N,+5V*%
X75140000Y-35470000D02*
X67320000Y-35470000D01*
X67320000Y-35470000D02*
X66920000Y-35870000D01*
%TO.N,+3V3*%
X74910000Y-44350000D02*
X71510000Y-40950000D01*
X71510000Y-40950000D02*
X66920000Y-40950000D01*
X54920000Y-60710000D02*
X54920000Y-52950000D01*
X54920000Y-52950000D02*
X66920000Y-40950000D01*
%TO.N,Net-(U2-1Y)*%
X71090000Y-65420000D02*
X62450000Y-65420000D01*
X62450000Y-65420000D02*
X61330000Y-66540000D01*
%TO.N,LED-DATA*%
X72990000Y-65420000D02*
X78120000Y-65420000D01*
X78120000Y-65420000D02*
X78190000Y-65350000D01*
%TD*%
M02*
