%TF.GenerationSoftware,KiCad,Pcbnew,10.0.3*%
%TF.CreationDate,2026-06-29T14:01:57-05:00*%
%TF.ProjectId,reactive-led-board,72656163-7469-4766-952d-6c65642d626f,rev?*%
%TF.SameCoordinates,Original*%
%TF.FileFunction,Legend,Top*%
%TF.FilePolarity,Positive*%
%FSLAX46Y46*%
G04 Gerber Fmt 4.6, Leading zero omitted, Abs format (unit mm)*
G04 Created by KiCad (PCBNEW 10.0.3) date 2026-06-29 14:01:57*
%MOMM*%
%LPD*%
G01*
G04 APERTURE LIST*
%ADD10C,0.100000*%
%ADD11C,0.150000*%
%ADD12C,0.101600*%
%ADD13C,0.200000*%
%ADD14C,0.120000*%
%ADD15C,0.152400*%
%ADD16C,0.127000*%
%ADD17C,0.504000*%
G04 APERTURE END LIST*
D10*
X76497693Y-73750038D02*
X76402455Y-73702419D01*
X76402455Y-73702419D02*
X76259598Y-73702419D01*
X76259598Y-73702419D02*
X76116741Y-73750038D01*
X76116741Y-73750038D02*
X76021503Y-73845276D01*
X76021503Y-73845276D02*
X75973884Y-73940514D01*
X75973884Y-73940514D02*
X75926265Y-74130990D01*
X75926265Y-74130990D02*
X75926265Y-74273847D01*
X75926265Y-74273847D02*
X75973884Y-74464323D01*
X75973884Y-74464323D02*
X76021503Y-74559561D01*
X76021503Y-74559561D02*
X76116741Y-74654800D01*
X76116741Y-74654800D02*
X76259598Y-74702419D01*
X76259598Y-74702419D02*
X76354836Y-74702419D01*
X76354836Y-74702419D02*
X76497693Y-74654800D01*
X76497693Y-74654800D02*
X76545312Y-74607180D01*
X76545312Y-74607180D02*
X76545312Y-74273847D01*
X76545312Y-74273847D02*
X76354836Y-74273847D01*
X76973884Y-74702419D02*
X76973884Y-73702419D01*
X76973884Y-73702419D02*
X77545312Y-74702419D01*
X77545312Y-74702419D02*
X77545312Y-73702419D01*
X78021503Y-74702419D02*
X78021503Y-73702419D01*
X78021503Y-73702419D02*
X78259598Y-73702419D01*
X78259598Y-73702419D02*
X78402455Y-73750038D01*
X78402455Y-73750038D02*
X78497693Y-73845276D01*
X78497693Y-73845276D02*
X78545312Y-73940514D01*
X78545312Y-73940514D02*
X78592931Y-74130990D01*
X78592931Y-74130990D02*
X78592931Y-74273847D01*
X78592931Y-74273847D02*
X78545312Y-74464323D01*
X78545312Y-74464323D02*
X78497693Y-74559561D01*
X78497693Y-74559561D02*
X78402455Y-74654800D01*
X78402455Y-74654800D02*
X78259598Y-74702419D01*
X78259598Y-74702419D02*
X78021503Y-74702419D01*
X79640551Y-73797657D02*
X79831027Y-73654800D01*
X79831027Y-73654800D02*
X80021503Y-73797657D01*
X78250074Y-56342419D02*
X77773884Y-56342419D01*
X77773884Y-56342419D02*
X77726265Y-56818609D01*
X77726265Y-56818609D02*
X77773884Y-56770990D01*
X77773884Y-56770990D02*
X77869122Y-56723371D01*
X77869122Y-56723371D02*
X78107217Y-56723371D01*
X78107217Y-56723371D02*
X78202455Y-56770990D01*
X78202455Y-56770990D02*
X78250074Y-56818609D01*
X78250074Y-56818609D02*
X78297693Y-56913847D01*
X78297693Y-56913847D02*
X78297693Y-57151942D01*
X78297693Y-57151942D02*
X78250074Y-57247180D01*
X78250074Y-57247180D02*
X78202455Y-57294800D01*
X78202455Y-57294800D02*
X78107217Y-57342419D01*
X78107217Y-57342419D02*
X77869122Y-57342419D01*
X77869122Y-57342419D02*
X77773884Y-57294800D01*
X77773884Y-57294800D02*
X77726265Y-57247180D01*
X78631027Y-56675752D02*
X78869122Y-57342419D01*
X78869122Y-57342419D02*
X79107217Y-56675752D01*
X49530074Y-71372419D02*
X49053884Y-71372419D01*
X49053884Y-71372419D02*
X49053884Y-70372419D01*
X50434836Y-71372419D02*
X50101503Y-70896228D01*
X49863408Y-71372419D02*
X49863408Y-70372419D01*
X49863408Y-70372419D02*
X50244360Y-70372419D01*
X50244360Y-70372419D02*
X50339598Y-70420038D01*
X50339598Y-70420038D02*
X50387217Y-70467657D01*
X50387217Y-70467657D02*
X50434836Y-70562895D01*
X50434836Y-70562895D02*
X50434836Y-70705752D01*
X50434836Y-70705752D02*
X50387217Y-70800990D01*
X50387217Y-70800990D02*
X50339598Y-70848609D01*
X50339598Y-70848609D02*
X50244360Y-70896228D01*
X50244360Y-70896228D02*
X49863408Y-70896228D01*
X51434836Y-71277180D02*
X51387217Y-71324800D01*
X51387217Y-71324800D02*
X51244360Y-71372419D01*
X51244360Y-71372419D02*
X51149122Y-71372419D01*
X51149122Y-71372419D02*
X51006265Y-71324800D01*
X51006265Y-71324800D02*
X50911027Y-71229561D01*
X50911027Y-71229561D02*
X50863408Y-71134323D01*
X50863408Y-71134323D02*
X50815789Y-70943847D01*
X50815789Y-70943847D02*
X50815789Y-70800990D01*
X50815789Y-70800990D02*
X50863408Y-70610514D01*
X50863408Y-70610514D02*
X50911027Y-70515276D01*
X50911027Y-70515276D02*
X51006265Y-70420038D01*
X51006265Y-70420038D02*
X51149122Y-70372419D01*
X51149122Y-70372419D02*
X51244360Y-70372419D01*
X51244360Y-70372419D02*
X51387217Y-70420038D01*
X51387217Y-70420038D02*
X51434836Y-70467657D01*
X52339598Y-71372419D02*
X51863408Y-71372419D01*
X51863408Y-71372419D02*
X51863408Y-70372419D01*
X52672932Y-71372419D02*
X52672932Y-70372419D01*
X53244360Y-71372419D02*
X52815789Y-70800990D01*
X53244360Y-70372419D02*
X52672932Y-70943847D01*
X39920074Y-41352419D02*
X39443884Y-41352419D01*
X39443884Y-41352419D02*
X39443884Y-40352419D01*
X40824836Y-41352419D02*
X40491503Y-40876228D01*
X40253408Y-41352419D02*
X40253408Y-40352419D01*
X40253408Y-40352419D02*
X40634360Y-40352419D01*
X40634360Y-40352419D02*
X40729598Y-40400038D01*
X40729598Y-40400038D02*
X40777217Y-40447657D01*
X40777217Y-40447657D02*
X40824836Y-40542895D01*
X40824836Y-40542895D02*
X40824836Y-40685752D01*
X40824836Y-40685752D02*
X40777217Y-40780990D01*
X40777217Y-40780990D02*
X40729598Y-40828609D01*
X40729598Y-40828609D02*
X40634360Y-40876228D01*
X40634360Y-40876228D02*
X40253408Y-40876228D01*
X41824836Y-41257180D02*
X41777217Y-41304800D01*
X41777217Y-41304800D02*
X41634360Y-41352419D01*
X41634360Y-41352419D02*
X41539122Y-41352419D01*
X41539122Y-41352419D02*
X41396265Y-41304800D01*
X41396265Y-41304800D02*
X41301027Y-41209561D01*
X41301027Y-41209561D02*
X41253408Y-41114323D01*
X41253408Y-41114323D02*
X41205789Y-40923847D01*
X41205789Y-40923847D02*
X41205789Y-40780990D01*
X41205789Y-40780990D02*
X41253408Y-40590514D01*
X41253408Y-40590514D02*
X41301027Y-40495276D01*
X41301027Y-40495276D02*
X41396265Y-40400038D01*
X41396265Y-40400038D02*
X41539122Y-40352419D01*
X41539122Y-40352419D02*
X41634360Y-40352419D01*
X41634360Y-40352419D02*
X41777217Y-40400038D01*
X41777217Y-40400038D02*
X41824836Y-40447657D01*
X42729598Y-41352419D02*
X42253408Y-41352419D01*
X42253408Y-41352419D02*
X42253408Y-40352419D01*
X43062932Y-41352419D02*
X43062932Y-40352419D01*
X43634360Y-41352419D02*
X43205789Y-40780990D01*
X43634360Y-40352419D02*
X43062932Y-40923847D01*
X45348646Y-40400038D02*
X45253408Y-40352419D01*
X45253408Y-40352419D02*
X45110551Y-40352419D01*
X45110551Y-40352419D02*
X44967694Y-40400038D01*
X44967694Y-40400038D02*
X44872456Y-40495276D01*
X44872456Y-40495276D02*
X44824837Y-40590514D01*
X44824837Y-40590514D02*
X44777218Y-40780990D01*
X44777218Y-40780990D02*
X44777218Y-40923847D01*
X44777218Y-40923847D02*
X44824837Y-41114323D01*
X44824837Y-41114323D02*
X44872456Y-41209561D01*
X44872456Y-41209561D02*
X44967694Y-41304800D01*
X44967694Y-41304800D02*
X45110551Y-41352419D01*
X45110551Y-41352419D02*
X45205789Y-41352419D01*
X45205789Y-41352419D02*
X45348646Y-41304800D01*
X45348646Y-41304800D02*
X45396265Y-41257180D01*
X45396265Y-41257180D02*
X45396265Y-40923847D01*
X45396265Y-40923847D02*
X45205789Y-40923847D01*
X45824837Y-41352419D02*
X45824837Y-40352419D01*
X45824837Y-40352419D02*
X46205789Y-40352419D01*
X46205789Y-40352419D02*
X46301027Y-40400038D01*
X46301027Y-40400038D02*
X46348646Y-40447657D01*
X46348646Y-40447657D02*
X46396265Y-40542895D01*
X46396265Y-40542895D02*
X46396265Y-40685752D01*
X46396265Y-40685752D02*
X46348646Y-40780990D01*
X46348646Y-40780990D02*
X46301027Y-40828609D01*
X46301027Y-40828609D02*
X46205789Y-40876228D01*
X46205789Y-40876228D02*
X45824837Y-40876228D01*
X46824837Y-41352419D02*
X46824837Y-40352419D01*
X47491503Y-40352419D02*
X47681979Y-40352419D01*
X47681979Y-40352419D02*
X47777217Y-40400038D01*
X47777217Y-40400038D02*
X47872455Y-40495276D01*
X47872455Y-40495276D02*
X47920074Y-40685752D01*
X47920074Y-40685752D02*
X47920074Y-41019085D01*
X47920074Y-41019085D02*
X47872455Y-41209561D01*
X47872455Y-41209561D02*
X47777217Y-41304800D01*
X47777217Y-41304800D02*
X47681979Y-41352419D01*
X47681979Y-41352419D02*
X47491503Y-41352419D01*
X47491503Y-41352419D02*
X47396265Y-41304800D01*
X47396265Y-41304800D02*
X47301027Y-41209561D01*
X47301027Y-41209561D02*
X47253408Y-41019085D01*
X47253408Y-41019085D02*
X47253408Y-40685752D01*
X47253408Y-40685752D02*
X47301027Y-40495276D01*
X47301027Y-40495276D02*
X47396265Y-40400038D01*
X47396265Y-40400038D02*
X47491503Y-40352419D01*
X48253408Y-40352419D02*
X48872455Y-40352419D01*
X48872455Y-40352419D02*
X48539122Y-40733371D01*
X48539122Y-40733371D02*
X48681979Y-40733371D01*
X48681979Y-40733371D02*
X48777217Y-40780990D01*
X48777217Y-40780990D02*
X48824836Y-40828609D01*
X48824836Y-40828609D02*
X48872455Y-40923847D01*
X48872455Y-40923847D02*
X48872455Y-41161942D01*
X48872455Y-41161942D02*
X48824836Y-41257180D01*
X48824836Y-41257180D02*
X48777217Y-41304800D01*
X48777217Y-41304800D02*
X48681979Y-41352419D01*
X48681979Y-41352419D02*
X48396265Y-41352419D01*
X48396265Y-41352419D02*
X48301027Y-41304800D01*
X48301027Y-41304800D02*
X48253408Y-41257180D01*
X39903884Y-38982419D02*
X39903884Y-37982419D01*
X39903884Y-37982419D02*
X40141979Y-37982419D01*
X40141979Y-37982419D02*
X40284836Y-38030038D01*
X40284836Y-38030038D02*
X40380074Y-38125276D01*
X40380074Y-38125276D02*
X40427693Y-38220514D01*
X40427693Y-38220514D02*
X40475312Y-38410990D01*
X40475312Y-38410990D02*
X40475312Y-38553847D01*
X40475312Y-38553847D02*
X40427693Y-38744323D01*
X40427693Y-38744323D02*
X40380074Y-38839561D01*
X40380074Y-38839561D02*
X40284836Y-38934800D01*
X40284836Y-38934800D02*
X40141979Y-38982419D01*
X40141979Y-38982419D02*
X39903884Y-38982419D01*
X41094360Y-37982419D02*
X41284836Y-37982419D01*
X41284836Y-37982419D02*
X41380074Y-38030038D01*
X41380074Y-38030038D02*
X41475312Y-38125276D01*
X41475312Y-38125276D02*
X41522931Y-38315752D01*
X41522931Y-38315752D02*
X41522931Y-38649085D01*
X41522931Y-38649085D02*
X41475312Y-38839561D01*
X41475312Y-38839561D02*
X41380074Y-38934800D01*
X41380074Y-38934800D02*
X41284836Y-38982419D01*
X41284836Y-38982419D02*
X41094360Y-38982419D01*
X41094360Y-38982419D02*
X40999122Y-38934800D01*
X40999122Y-38934800D02*
X40903884Y-38839561D01*
X40903884Y-38839561D02*
X40856265Y-38649085D01*
X40856265Y-38649085D02*
X40856265Y-38315752D01*
X40856265Y-38315752D02*
X40903884Y-38125276D01*
X40903884Y-38125276D02*
X40999122Y-38030038D01*
X40999122Y-38030038D02*
X41094360Y-37982419D01*
X41951503Y-37982419D02*
X41951503Y-38791942D01*
X41951503Y-38791942D02*
X41999122Y-38887180D01*
X41999122Y-38887180D02*
X42046741Y-38934800D01*
X42046741Y-38934800D02*
X42141979Y-38982419D01*
X42141979Y-38982419D02*
X42332455Y-38982419D01*
X42332455Y-38982419D02*
X42427693Y-38934800D01*
X42427693Y-38934800D02*
X42475312Y-38887180D01*
X42475312Y-38887180D02*
X42522931Y-38791942D01*
X42522931Y-38791942D02*
X42522931Y-37982419D01*
X42856265Y-37982419D02*
X43427693Y-37982419D01*
X43141979Y-38982419D02*
X43141979Y-37982419D01*
X45046741Y-38030038D02*
X44951503Y-37982419D01*
X44951503Y-37982419D02*
X44808646Y-37982419D01*
X44808646Y-37982419D02*
X44665789Y-38030038D01*
X44665789Y-38030038D02*
X44570551Y-38125276D01*
X44570551Y-38125276D02*
X44522932Y-38220514D01*
X44522932Y-38220514D02*
X44475313Y-38410990D01*
X44475313Y-38410990D02*
X44475313Y-38553847D01*
X44475313Y-38553847D02*
X44522932Y-38744323D01*
X44522932Y-38744323D02*
X44570551Y-38839561D01*
X44570551Y-38839561D02*
X44665789Y-38934800D01*
X44665789Y-38934800D02*
X44808646Y-38982419D01*
X44808646Y-38982419D02*
X44903884Y-38982419D01*
X44903884Y-38982419D02*
X45046741Y-38934800D01*
X45046741Y-38934800D02*
X45094360Y-38887180D01*
X45094360Y-38887180D02*
X45094360Y-38553847D01*
X45094360Y-38553847D02*
X44903884Y-38553847D01*
X45522932Y-38982419D02*
X45522932Y-37982419D01*
X45522932Y-37982419D02*
X45903884Y-37982419D01*
X45903884Y-37982419D02*
X45999122Y-38030038D01*
X45999122Y-38030038D02*
X46046741Y-38077657D01*
X46046741Y-38077657D02*
X46094360Y-38172895D01*
X46094360Y-38172895D02*
X46094360Y-38315752D01*
X46094360Y-38315752D02*
X46046741Y-38410990D01*
X46046741Y-38410990D02*
X45999122Y-38458609D01*
X45999122Y-38458609D02*
X45903884Y-38506228D01*
X45903884Y-38506228D02*
X45522932Y-38506228D01*
X46522932Y-38982419D02*
X46522932Y-37982419D01*
X47189598Y-37982419D02*
X47380074Y-37982419D01*
X47380074Y-37982419D02*
X47475312Y-38030038D01*
X47475312Y-38030038D02*
X47570550Y-38125276D01*
X47570550Y-38125276D02*
X47618169Y-38315752D01*
X47618169Y-38315752D02*
X47618169Y-38649085D01*
X47618169Y-38649085D02*
X47570550Y-38839561D01*
X47570550Y-38839561D02*
X47475312Y-38934800D01*
X47475312Y-38934800D02*
X47380074Y-38982419D01*
X47380074Y-38982419D02*
X47189598Y-38982419D01*
X47189598Y-38982419D02*
X47094360Y-38934800D01*
X47094360Y-38934800D02*
X46999122Y-38839561D01*
X46999122Y-38839561D02*
X46951503Y-38649085D01*
X46951503Y-38649085D02*
X46951503Y-38315752D01*
X46951503Y-38315752D02*
X46999122Y-38125276D01*
X46999122Y-38125276D02*
X47094360Y-38030038D01*
X47094360Y-38030038D02*
X47189598Y-37982419D01*
X47999122Y-38077657D02*
X48046741Y-38030038D01*
X48046741Y-38030038D02*
X48141979Y-37982419D01*
X48141979Y-37982419D02*
X48380074Y-37982419D01*
X48380074Y-37982419D02*
X48475312Y-38030038D01*
X48475312Y-38030038D02*
X48522931Y-38077657D01*
X48522931Y-38077657D02*
X48570550Y-38172895D01*
X48570550Y-38172895D02*
X48570550Y-38268133D01*
X48570550Y-38268133D02*
X48522931Y-38410990D01*
X48522931Y-38410990D02*
X47951503Y-38982419D01*
X47951503Y-38982419D02*
X48570550Y-38982419D01*
X40497217Y-35868609D02*
X40640074Y-35916228D01*
X40640074Y-35916228D02*
X40687693Y-35963847D01*
X40687693Y-35963847D02*
X40735312Y-36059085D01*
X40735312Y-36059085D02*
X40735312Y-36201942D01*
X40735312Y-36201942D02*
X40687693Y-36297180D01*
X40687693Y-36297180D02*
X40640074Y-36344800D01*
X40640074Y-36344800D02*
X40544836Y-36392419D01*
X40544836Y-36392419D02*
X40163884Y-36392419D01*
X40163884Y-36392419D02*
X40163884Y-35392419D01*
X40163884Y-35392419D02*
X40497217Y-35392419D01*
X40497217Y-35392419D02*
X40592455Y-35440038D01*
X40592455Y-35440038D02*
X40640074Y-35487657D01*
X40640074Y-35487657D02*
X40687693Y-35582895D01*
X40687693Y-35582895D02*
X40687693Y-35678133D01*
X40687693Y-35678133D02*
X40640074Y-35773371D01*
X40640074Y-35773371D02*
X40592455Y-35820990D01*
X40592455Y-35820990D02*
X40497217Y-35868609D01*
X40497217Y-35868609D02*
X40163884Y-35868609D01*
X41735312Y-36297180D02*
X41687693Y-36344800D01*
X41687693Y-36344800D02*
X41544836Y-36392419D01*
X41544836Y-36392419D02*
X41449598Y-36392419D01*
X41449598Y-36392419D02*
X41306741Y-36344800D01*
X41306741Y-36344800D02*
X41211503Y-36249561D01*
X41211503Y-36249561D02*
X41163884Y-36154323D01*
X41163884Y-36154323D02*
X41116265Y-35963847D01*
X41116265Y-35963847D02*
X41116265Y-35820990D01*
X41116265Y-35820990D02*
X41163884Y-35630514D01*
X41163884Y-35630514D02*
X41211503Y-35535276D01*
X41211503Y-35535276D02*
X41306741Y-35440038D01*
X41306741Y-35440038D02*
X41449598Y-35392419D01*
X41449598Y-35392419D02*
X41544836Y-35392419D01*
X41544836Y-35392419D02*
X41687693Y-35440038D01*
X41687693Y-35440038D02*
X41735312Y-35487657D01*
X42640074Y-36392419D02*
X42163884Y-36392419D01*
X42163884Y-36392419D02*
X42163884Y-35392419D01*
X42973408Y-36392419D02*
X42973408Y-35392419D01*
X43544836Y-36392419D02*
X43116265Y-35820990D01*
X43544836Y-35392419D02*
X42973408Y-35963847D01*
X45259122Y-35440038D02*
X45163884Y-35392419D01*
X45163884Y-35392419D02*
X45021027Y-35392419D01*
X45021027Y-35392419D02*
X44878170Y-35440038D01*
X44878170Y-35440038D02*
X44782932Y-35535276D01*
X44782932Y-35535276D02*
X44735313Y-35630514D01*
X44735313Y-35630514D02*
X44687694Y-35820990D01*
X44687694Y-35820990D02*
X44687694Y-35963847D01*
X44687694Y-35963847D02*
X44735313Y-36154323D01*
X44735313Y-36154323D02*
X44782932Y-36249561D01*
X44782932Y-36249561D02*
X44878170Y-36344800D01*
X44878170Y-36344800D02*
X45021027Y-36392419D01*
X45021027Y-36392419D02*
X45116265Y-36392419D01*
X45116265Y-36392419D02*
X45259122Y-36344800D01*
X45259122Y-36344800D02*
X45306741Y-36297180D01*
X45306741Y-36297180D02*
X45306741Y-35963847D01*
X45306741Y-35963847D02*
X45116265Y-35963847D01*
X45735313Y-36392419D02*
X45735313Y-35392419D01*
X45735313Y-35392419D02*
X46116265Y-35392419D01*
X46116265Y-35392419D02*
X46211503Y-35440038D01*
X46211503Y-35440038D02*
X46259122Y-35487657D01*
X46259122Y-35487657D02*
X46306741Y-35582895D01*
X46306741Y-35582895D02*
X46306741Y-35725752D01*
X46306741Y-35725752D02*
X46259122Y-35820990D01*
X46259122Y-35820990D02*
X46211503Y-35868609D01*
X46211503Y-35868609D02*
X46116265Y-35916228D01*
X46116265Y-35916228D02*
X45735313Y-35916228D01*
X46735313Y-36392419D02*
X46735313Y-35392419D01*
X47401979Y-35392419D02*
X47592455Y-35392419D01*
X47592455Y-35392419D02*
X47687693Y-35440038D01*
X47687693Y-35440038D02*
X47782931Y-35535276D01*
X47782931Y-35535276D02*
X47830550Y-35725752D01*
X47830550Y-35725752D02*
X47830550Y-36059085D01*
X47830550Y-36059085D02*
X47782931Y-36249561D01*
X47782931Y-36249561D02*
X47687693Y-36344800D01*
X47687693Y-36344800D02*
X47592455Y-36392419D01*
X47592455Y-36392419D02*
X47401979Y-36392419D01*
X47401979Y-36392419D02*
X47306741Y-36344800D01*
X47306741Y-36344800D02*
X47211503Y-36249561D01*
X47211503Y-36249561D02*
X47163884Y-36059085D01*
X47163884Y-36059085D02*
X47163884Y-35725752D01*
X47163884Y-35725752D02*
X47211503Y-35535276D01*
X47211503Y-35535276D02*
X47306741Y-35440038D01*
X47306741Y-35440038D02*
X47401979Y-35392419D01*
X48782931Y-36392419D02*
X48211503Y-36392419D01*
X48497217Y-36392419D02*
X48497217Y-35392419D01*
X48497217Y-35392419D02*
X48401979Y-35535276D01*
X48401979Y-35535276D02*
X48306741Y-35630514D01*
X48306741Y-35630514D02*
X48211503Y-35678133D01*
X49393884Y-68922419D02*
X49393884Y-67922419D01*
X49393884Y-67922419D02*
X49631979Y-67922419D01*
X49631979Y-67922419D02*
X49774836Y-67970038D01*
X49774836Y-67970038D02*
X49870074Y-68065276D01*
X49870074Y-68065276D02*
X49917693Y-68160514D01*
X49917693Y-68160514D02*
X49965312Y-68350990D01*
X49965312Y-68350990D02*
X49965312Y-68493847D01*
X49965312Y-68493847D02*
X49917693Y-68684323D01*
X49917693Y-68684323D02*
X49870074Y-68779561D01*
X49870074Y-68779561D02*
X49774836Y-68874800D01*
X49774836Y-68874800D02*
X49631979Y-68922419D01*
X49631979Y-68922419D02*
X49393884Y-68922419D01*
X50584360Y-67922419D02*
X50774836Y-67922419D01*
X50774836Y-67922419D02*
X50870074Y-67970038D01*
X50870074Y-67970038D02*
X50965312Y-68065276D01*
X50965312Y-68065276D02*
X51012931Y-68255752D01*
X51012931Y-68255752D02*
X51012931Y-68589085D01*
X51012931Y-68589085D02*
X50965312Y-68779561D01*
X50965312Y-68779561D02*
X50870074Y-68874800D01*
X50870074Y-68874800D02*
X50774836Y-68922419D01*
X50774836Y-68922419D02*
X50584360Y-68922419D01*
X50584360Y-68922419D02*
X50489122Y-68874800D01*
X50489122Y-68874800D02*
X50393884Y-68779561D01*
X50393884Y-68779561D02*
X50346265Y-68589085D01*
X50346265Y-68589085D02*
X50346265Y-68255752D01*
X50346265Y-68255752D02*
X50393884Y-68065276D01*
X50393884Y-68065276D02*
X50489122Y-67970038D01*
X50489122Y-67970038D02*
X50584360Y-67922419D01*
X51441503Y-67922419D02*
X51441503Y-68731942D01*
X51441503Y-68731942D02*
X51489122Y-68827180D01*
X51489122Y-68827180D02*
X51536741Y-68874800D01*
X51536741Y-68874800D02*
X51631979Y-68922419D01*
X51631979Y-68922419D02*
X51822455Y-68922419D01*
X51822455Y-68922419D02*
X51917693Y-68874800D01*
X51917693Y-68874800D02*
X51965312Y-68827180D01*
X51965312Y-68827180D02*
X52012931Y-68731942D01*
X52012931Y-68731942D02*
X52012931Y-67922419D01*
X52346265Y-67922419D02*
X52917693Y-67922419D01*
X52631979Y-68922419D02*
X52631979Y-67922419D01*
X49887217Y-66028609D02*
X50030074Y-66076228D01*
X50030074Y-66076228D02*
X50077693Y-66123847D01*
X50077693Y-66123847D02*
X50125312Y-66219085D01*
X50125312Y-66219085D02*
X50125312Y-66361942D01*
X50125312Y-66361942D02*
X50077693Y-66457180D01*
X50077693Y-66457180D02*
X50030074Y-66504800D01*
X50030074Y-66504800D02*
X49934836Y-66552419D01*
X49934836Y-66552419D02*
X49553884Y-66552419D01*
X49553884Y-66552419D02*
X49553884Y-65552419D01*
X49553884Y-65552419D02*
X49887217Y-65552419D01*
X49887217Y-65552419D02*
X49982455Y-65600038D01*
X49982455Y-65600038D02*
X50030074Y-65647657D01*
X50030074Y-65647657D02*
X50077693Y-65742895D01*
X50077693Y-65742895D02*
X50077693Y-65838133D01*
X50077693Y-65838133D02*
X50030074Y-65933371D01*
X50030074Y-65933371D02*
X49982455Y-65980990D01*
X49982455Y-65980990D02*
X49887217Y-66028609D01*
X49887217Y-66028609D02*
X49553884Y-66028609D01*
X51125312Y-66457180D02*
X51077693Y-66504800D01*
X51077693Y-66504800D02*
X50934836Y-66552419D01*
X50934836Y-66552419D02*
X50839598Y-66552419D01*
X50839598Y-66552419D02*
X50696741Y-66504800D01*
X50696741Y-66504800D02*
X50601503Y-66409561D01*
X50601503Y-66409561D02*
X50553884Y-66314323D01*
X50553884Y-66314323D02*
X50506265Y-66123847D01*
X50506265Y-66123847D02*
X50506265Y-65980990D01*
X50506265Y-65980990D02*
X50553884Y-65790514D01*
X50553884Y-65790514D02*
X50601503Y-65695276D01*
X50601503Y-65695276D02*
X50696741Y-65600038D01*
X50696741Y-65600038D02*
X50839598Y-65552419D01*
X50839598Y-65552419D02*
X50934836Y-65552419D01*
X50934836Y-65552419D02*
X51077693Y-65600038D01*
X51077693Y-65600038D02*
X51125312Y-65647657D01*
X52030074Y-66552419D02*
X51553884Y-66552419D01*
X51553884Y-66552419D02*
X51553884Y-65552419D01*
X52363408Y-66552419D02*
X52363408Y-65552419D01*
X52934836Y-66552419D02*
X52506265Y-65980990D01*
X52934836Y-65552419D02*
X52363408Y-66123847D01*
X46672475Y-73427544D02*
X46148665Y-73427544D01*
X46148665Y-73427544D02*
X46053427Y-73475163D01*
X46053427Y-73475163D02*
X46005808Y-73570401D01*
X46005808Y-73570401D02*
X46005808Y-73760877D01*
X46005808Y-73760877D02*
X46053427Y-73856115D01*
X46624856Y-73427544D02*
X46672475Y-73522782D01*
X46672475Y-73522782D02*
X46672475Y-73760877D01*
X46672475Y-73760877D02*
X46624856Y-73856115D01*
X46624856Y-73856115D02*
X46529617Y-73903734D01*
X46529617Y-73903734D02*
X46434379Y-73903734D01*
X46434379Y-73903734D02*
X46339141Y-73856115D01*
X46339141Y-73856115D02*
X46291522Y-73760877D01*
X46291522Y-73760877D02*
X46291522Y-73522782D01*
X46291522Y-73522782D02*
X46243903Y-73427544D01*
X46672475Y-72522782D02*
X45672475Y-72522782D01*
X46624856Y-72522782D02*
X46672475Y-72618020D01*
X46672475Y-72618020D02*
X46672475Y-72808496D01*
X46672475Y-72808496D02*
X46624856Y-72903734D01*
X46624856Y-72903734D02*
X46577236Y-72951353D01*
X46577236Y-72951353D02*
X46481998Y-72998972D01*
X46481998Y-72998972D02*
X46196284Y-72998972D01*
X46196284Y-72998972D02*
X46101046Y-72951353D01*
X46101046Y-72951353D02*
X46053427Y-72903734D01*
X46053427Y-72903734D02*
X46005808Y-72808496D01*
X46005808Y-72808496D02*
X46005808Y-72618020D01*
X46005808Y-72618020D02*
X46053427Y-72522782D01*
X46672475Y-71618020D02*
X46148665Y-71618020D01*
X46148665Y-71618020D02*
X46053427Y-71665639D01*
X46053427Y-71665639D02*
X46005808Y-71760877D01*
X46005808Y-71760877D02*
X46005808Y-71951353D01*
X46005808Y-71951353D02*
X46053427Y-72046591D01*
X46624856Y-71618020D02*
X46672475Y-71713258D01*
X46672475Y-71713258D02*
X46672475Y-71951353D01*
X46672475Y-71951353D02*
X46624856Y-72046591D01*
X46624856Y-72046591D02*
X46529617Y-72094210D01*
X46529617Y-72094210D02*
X46434379Y-72094210D01*
X46434379Y-72094210D02*
X46339141Y-72046591D01*
X46339141Y-72046591D02*
X46291522Y-71951353D01*
X46291522Y-71951353D02*
X46291522Y-71713258D01*
X46291522Y-71713258D02*
X46243903Y-71618020D01*
X46005808Y-71284686D02*
X46005808Y-70903734D01*
X46672475Y-71141829D02*
X45815332Y-71141829D01*
X45815332Y-71141829D02*
X45720094Y-71094210D01*
X45720094Y-71094210D02*
X45672475Y-70998972D01*
X45672475Y-70998972D02*
X45672475Y-70903734D01*
X46672475Y-70570400D02*
X46005808Y-70570400D01*
X46196284Y-70570400D02*
X46101046Y-70522781D01*
X46101046Y-70522781D02*
X46053427Y-70475162D01*
X46053427Y-70475162D02*
X46005808Y-70379924D01*
X46005808Y-70379924D02*
X46005808Y-70284686D01*
X46005808Y-69522781D02*
X46672475Y-69522781D01*
X46005808Y-69951352D02*
X46529617Y-69951352D01*
X46529617Y-69951352D02*
X46624856Y-69903733D01*
X46624856Y-69903733D02*
X46672475Y-69808495D01*
X46672475Y-69808495D02*
X46672475Y-69665638D01*
X46672475Y-69665638D02*
X46624856Y-69570400D01*
X46624856Y-69570400D02*
X46577236Y-69522781D01*
X46672475Y-69046590D02*
X46005808Y-69046590D01*
X45672475Y-69046590D02*
X45720094Y-69094209D01*
X45720094Y-69094209D02*
X45767713Y-69046590D01*
X45767713Y-69046590D02*
X45720094Y-68998971D01*
X45720094Y-68998971D02*
X45672475Y-69046590D01*
X45672475Y-69046590D02*
X45767713Y-69046590D01*
X46005808Y-68713257D02*
X46005808Y-68332305D01*
X45672475Y-68570400D02*
X46529617Y-68570400D01*
X46529617Y-68570400D02*
X46624856Y-68522781D01*
X46624856Y-68522781D02*
X46672475Y-68427543D01*
X46672475Y-68427543D02*
X46672475Y-68332305D01*
X46672475Y-67237066D02*
X45672475Y-67237066D01*
X46577236Y-66189448D02*
X46624856Y-66237067D01*
X46624856Y-66237067D02*
X46672475Y-66379924D01*
X46672475Y-66379924D02*
X46672475Y-66475162D01*
X46672475Y-66475162D02*
X46624856Y-66618019D01*
X46624856Y-66618019D02*
X46529617Y-66713257D01*
X46529617Y-66713257D02*
X46434379Y-66760876D01*
X46434379Y-66760876D02*
X46243903Y-66808495D01*
X46243903Y-66808495D02*
X46101046Y-66808495D01*
X46101046Y-66808495D02*
X45910570Y-66760876D01*
X45910570Y-66760876D02*
X45815332Y-66713257D01*
X45815332Y-66713257D02*
X45720094Y-66618019D01*
X45720094Y-66618019D02*
X45672475Y-66475162D01*
X45672475Y-66475162D02*
X45672475Y-66379924D01*
X45672475Y-66379924D02*
X45720094Y-66237067D01*
X45720094Y-66237067D02*
X45767713Y-66189448D01*
X46624856Y-65808495D02*
X46672475Y-65665638D01*
X46672475Y-65665638D02*
X46672475Y-65427543D01*
X46672475Y-65427543D02*
X46624856Y-65332305D01*
X46624856Y-65332305D02*
X46577236Y-65284686D01*
X46577236Y-65284686D02*
X46481998Y-65237067D01*
X46481998Y-65237067D02*
X46386760Y-65237067D01*
X46386760Y-65237067D02*
X46291522Y-65284686D01*
X46291522Y-65284686D02*
X46243903Y-65332305D01*
X46243903Y-65332305D02*
X46196284Y-65427543D01*
X46196284Y-65427543D02*
X46148665Y-65618019D01*
X46148665Y-65618019D02*
X46101046Y-65713257D01*
X46101046Y-65713257D02*
X46053427Y-65760876D01*
X46053427Y-65760876D02*
X45958189Y-65808495D01*
X45958189Y-65808495D02*
X45862951Y-65808495D01*
X45862951Y-65808495D02*
X45767713Y-65760876D01*
X45767713Y-65760876D02*
X45720094Y-65713257D01*
X45720094Y-65713257D02*
X45672475Y-65618019D01*
X45672475Y-65618019D02*
X45672475Y-65379924D01*
X45672475Y-65379924D02*
X45720094Y-65237067D01*
X46291522Y-64808495D02*
X46291522Y-64046591D01*
X46005808Y-63141829D02*
X46672475Y-63141829D01*
X45624856Y-63379924D02*
X46339141Y-63618019D01*
X46339141Y-63618019D02*
X46339141Y-62998972D01*
X45672475Y-62713257D02*
X45672475Y-62094210D01*
X45672475Y-62094210D02*
X46053427Y-62427543D01*
X46053427Y-62427543D02*
X46053427Y-62284686D01*
X46053427Y-62284686D02*
X46101046Y-62189448D01*
X46101046Y-62189448D02*
X46148665Y-62141829D01*
X46148665Y-62141829D02*
X46243903Y-62094210D01*
X46243903Y-62094210D02*
X46481998Y-62094210D01*
X46481998Y-62094210D02*
X46577236Y-62141829D01*
X46577236Y-62141829D02*
X46624856Y-62189448D01*
X46624856Y-62189448D02*
X46672475Y-62284686D01*
X46672475Y-62284686D02*
X46672475Y-62570400D01*
X46672475Y-62570400D02*
X46624856Y-62665638D01*
X46624856Y-62665638D02*
X46577236Y-62713257D01*
X46005808Y-61237067D02*
X46672475Y-61237067D01*
X45624856Y-61475162D02*
X46339141Y-61713257D01*
X46339141Y-61713257D02*
X46339141Y-61094210D01*
X45672475Y-60808495D02*
X45672475Y-60189448D01*
X45672475Y-60189448D02*
X46053427Y-60522781D01*
X46053427Y-60522781D02*
X46053427Y-60379924D01*
X46053427Y-60379924D02*
X46101046Y-60284686D01*
X46101046Y-60284686D02*
X46148665Y-60237067D01*
X46148665Y-60237067D02*
X46243903Y-60189448D01*
X46243903Y-60189448D02*
X46481998Y-60189448D01*
X46481998Y-60189448D02*
X46577236Y-60237067D01*
X46577236Y-60237067D02*
X46624856Y-60284686D01*
X46624856Y-60284686D02*
X46672475Y-60379924D01*
X46672475Y-60379924D02*
X46672475Y-60665638D01*
X46672475Y-60665638D02*
X46624856Y-60760876D01*
X46624856Y-60760876D02*
X46577236Y-60808495D01*
X46005808Y-59332305D02*
X46672475Y-59332305D01*
X45624856Y-59570400D02*
X46339141Y-59808495D01*
X46339141Y-59808495D02*
X46339141Y-59189448D01*
X48282419Y-73856115D02*
X47615752Y-73856115D01*
X47710990Y-73856115D02*
X47663371Y-73808496D01*
X47663371Y-73808496D02*
X47615752Y-73713258D01*
X47615752Y-73713258D02*
X47615752Y-73570401D01*
X47615752Y-73570401D02*
X47663371Y-73475163D01*
X47663371Y-73475163D02*
X47758609Y-73427544D01*
X47758609Y-73427544D02*
X48282419Y-73427544D01*
X47758609Y-73427544D02*
X47663371Y-73379925D01*
X47663371Y-73379925D02*
X47615752Y-73284687D01*
X47615752Y-73284687D02*
X47615752Y-73141830D01*
X47615752Y-73141830D02*
X47663371Y-73046591D01*
X47663371Y-73046591D02*
X47758609Y-72998972D01*
X47758609Y-72998972D02*
X48282419Y-72998972D01*
X48282419Y-72522782D02*
X47615752Y-72522782D01*
X47282419Y-72522782D02*
X47330038Y-72570401D01*
X47330038Y-72570401D02*
X47377657Y-72522782D01*
X47377657Y-72522782D02*
X47330038Y-72475163D01*
X47330038Y-72475163D02*
X47282419Y-72522782D01*
X47282419Y-72522782D02*
X47377657Y-72522782D01*
X48234800Y-71618021D02*
X48282419Y-71713259D01*
X48282419Y-71713259D02*
X48282419Y-71903735D01*
X48282419Y-71903735D02*
X48234800Y-71998973D01*
X48234800Y-71998973D02*
X48187180Y-72046592D01*
X48187180Y-72046592D02*
X48091942Y-72094211D01*
X48091942Y-72094211D02*
X47806228Y-72094211D01*
X47806228Y-72094211D02*
X47710990Y-72046592D01*
X47710990Y-72046592D02*
X47663371Y-71998973D01*
X47663371Y-71998973D02*
X47615752Y-71903735D01*
X47615752Y-71903735D02*
X47615752Y-71713259D01*
X47615752Y-71713259D02*
X47663371Y-71618021D01*
X48282419Y-70427544D02*
X47615752Y-70427544D01*
X47710990Y-70427544D02*
X47663371Y-70379925D01*
X47663371Y-70379925D02*
X47615752Y-70284687D01*
X47615752Y-70284687D02*
X47615752Y-70141830D01*
X47615752Y-70141830D02*
X47663371Y-70046592D01*
X47663371Y-70046592D02*
X47758609Y-69998973D01*
X47758609Y-69998973D02*
X48282419Y-69998973D01*
X47758609Y-69998973D02*
X47663371Y-69951354D01*
X47663371Y-69951354D02*
X47615752Y-69856116D01*
X47615752Y-69856116D02*
X47615752Y-69713259D01*
X47615752Y-69713259D02*
X47663371Y-69618020D01*
X47663371Y-69618020D02*
X47758609Y-69570401D01*
X47758609Y-69570401D02*
X48282419Y-69570401D01*
X48282419Y-68951354D02*
X48234800Y-69046592D01*
X48234800Y-69046592D02*
X48187180Y-69094211D01*
X48187180Y-69094211D02*
X48091942Y-69141830D01*
X48091942Y-69141830D02*
X47806228Y-69141830D01*
X47806228Y-69141830D02*
X47710990Y-69094211D01*
X47710990Y-69094211D02*
X47663371Y-69046592D01*
X47663371Y-69046592D02*
X47615752Y-68951354D01*
X47615752Y-68951354D02*
X47615752Y-68808497D01*
X47615752Y-68808497D02*
X47663371Y-68713259D01*
X47663371Y-68713259D02*
X47710990Y-68665640D01*
X47710990Y-68665640D02*
X47806228Y-68618021D01*
X47806228Y-68618021D02*
X48091942Y-68618021D01*
X48091942Y-68618021D02*
X48187180Y-68665640D01*
X48187180Y-68665640D02*
X48234800Y-68713259D01*
X48234800Y-68713259D02*
X48282419Y-68808497D01*
X48282419Y-68808497D02*
X48282419Y-68951354D01*
X48282419Y-67760878D02*
X47282419Y-67760878D01*
X48234800Y-67760878D02*
X48282419Y-67856116D01*
X48282419Y-67856116D02*
X48282419Y-68046592D01*
X48282419Y-68046592D02*
X48234800Y-68141830D01*
X48234800Y-68141830D02*
X48187180Y-68189449D01*
X48187180Y-68189449D02*
X48091942Y-68237068D01*
X48091942Y-68237068D02*
X47806228Y-68237068D01*
X47806228Y-68237068D02*
X47710990Y-68189449D01*
X47710990Y-68189449D02*
X47663371Y-68141830D01*
X47663371Y-68141830D02*
X47615752Y-68046592D01*
X47615752Y-68046592D02*
X47615752Y-67856116D01*
X47615752Y-67856116D02*
X47663371Y-67760878D01*
X47615752Y-66856116D02*
X48282419Y-66856116D01*
X47615752Y-67284687D02*
X48139561Y-67284687D01*
X48139561Y-67284687D02*
X48234800Y-67237068D01*
X48234800Y-67237068D02*
X48282419Y-67141830D01*
X48282419Y-67141830D02*
X48282419Y-66998973D01*
X48282419Y-66998973D02*
X48234800Y-66903735D01*
X48234800Y-66903735D02*
X48187180Y-66856116D01*
X48282419Y-66237068D02*
X48234800Y-66332306D01*
X48234800Y-66332306D02*
X48139561Y-66379925D01*
X48139561Y-66379925D02*
X47282419Y-66379925D01*
X48234800Y-65475163D02*
X48282419Y-65570401D01*
X48282419Y-65570401D02*
X48282419Y-65760877D01*
X48282419Y-65760877D02*
X48234800Y-65856115D01*
X48234800Y-65856115D02*
X48139561Y-65903734D01*
X48139561Y-65903734D02*
X47758609Y-65903734D01*
X47758609Y-65903734D02*
X47663371Y-65856115D01*
X47663371Y-65856115D02*
X47615752Y-65760877D01*
X47615752Y-65760877D02*
X47615752Y-65570401D01*
X47615752Y-65570401D02*
X47663371Y-65475163D01*
X47663371Y-65475163D02*
X47758609Y-65427544D01*
X47758609Y-65427544D02*
X47853847Y-65427544D01*
X47853847Y-65427544D02*
X47949085Y-65903734D01*
D11*
X72944819Y-67873333D02*
X73659104Y-67873333D01*
X73659104Y-67873333D02*
X73801961Y-67920952D01*
X73801961Y-67920952D02*
X73897200Y-68016190D01*
X73897200Y-68016190D02*
X73944819Y-68159047D01*
X73944819Y-68159047D02*
X73944819Y-68254285D01*
X73944819Y-66873333D02*
X73944819Y-67444761D01*
X73944819Y-67159047D02*
X72944819Y-67159047D01*
X72944819Y-67159047D02*
X73087676Y-67254285D01*
X73087676Y-67254285D02*
X73182914Y-67349523D01*
X73182914Y-67349523D02*
X73230533Y-67444761D01*
X54586666Y-57784819D02*
X54586666Y-58499104D01*
X54586666Y-58499104D02*
X54539047Y-58641961D01*
X54539047Y-58641961D02*
X54443809Y-58737200D01*
X54443809Y-58737200D02*
X54300952Y-58784819D01*
X54300952Y-58784819D02*
X54205714Y-58784819D01*
X55015238Y-57880057D02*
X55062857Y-57832438D01*
X55062857Y-57832438D02*
X55158095Y-57784819D01*
X55158095Y-57784819D02*
X55396190Y-57784819D01*
X55396190Y-57784819D02*
X55491428Y-57832438D01*
X55491428Y-57832438D02*
X55539047Y-57880057D01*
X55539047Y-57880057D02*
X55586666Y-57975295D01*
X55586666Y-57975295D02*
X55586666Y-58070533D01*
X55586666Y-58070533D02*
X55539047Y-58213390D01*
X55539047Y-58213390D02*
X54967619Y-58784819D01*
X54967619Y-58784819D02*
X55586666Y-58784819D01*
X64378095Y-68534819D02*
X64378095Y-69344342D01*
X64378095Y-69344342D02*
X64425714Y-69439580D01*
X64425714Y-69439580D02*
X64473333Y-69487200D01*
X64473333Y-69487200D02*
X64568571Y-69534819D01*
X64568571Y-69534819D02*
X64759047Y-69534819D01*
X64759047Y-69534819D02*
X64854285Y-69487200D01*
X64854285Y-69487200D02*
X64901904Y-69439580D01*
X64901904Y-69439580D02*
X64949523Y-69344342D01*
X64949523Y-69344342D02*
X64949523Y-68534819D01*
X65378095Y-68630057D02*
X65425714Y-68582438D01*
X65425714Y-68582438D02*
X65520952Y-68534819D01*
X65520952Y-68534819D02*
X65759047Y-68534819D01*
X65759047Y-68534819D02*
X65854285Y-68582438D01*
X65854285Y-68582438D02*
X65901904Y-68630057D01*
X65901904Y-68630057D02*
X65949523Y-68725295D01*
X65949523Y-68725295D02*
X65949523Y-68820533D01*
X65949523Y-68820533D02*
X65901904Y-68963390D01*
X65901904Y-68963390D02*
X65330476Y-69534819D01*
X65330476Y-69534819D02*
X65949523Y-69534819D01*
X61330000Y-59505119D02*
X61330000Y-59743214D01*
X61091905Y-59647976D02*
X61330000Y-59743214D01*
X61330000Y-59743214D02*
X61568095Y-59647976D01*
X61187143Y-59933690D02*
X61330000Y-59743214D01*
X61330000Y-59743214D02*
X61472857Y-59933690D01*
X61330000Y-59505119D02*
X61330000Y-59743214D01*
X61091905Y-59647976D02*
X61330000Y-59743214D01*
X61330000Y-59743214D02*
X61568095Y-59647976D01*
X61187143Y-59933690D02*
X61330000Y-59743214D01*
X61330000Y-59743214D02*
X61472857Y-59933690D01*
D12*
X53504811Y-44893809D02*
X54152430Y-44893809D01*
X54152430Y-44893809D02*
X54228620Y-44863571D01*
X54228620Y-44863571D02*
X54266716Y-44833333D01*
X54266716Y-44833333D02*
X54304811Y-44772857D01*
X54304811Y-44772857D02*
X54304811Y-44651904D01*
X54304811Y-44651904D02*
X54266716Y-44591428D01*
X54266716Y-44591428D02*
X54228620Y-44561190D01*
X54228620Y-44561190D02*
X54152430Y-44530952D01*
X54152430Y-44530952D02*
X53504811Y-44530952D01*
X54304811Y-43895952D02*
X54304811Y-44258809D01*
X54304811Y-44077381D02*
X53504811Y-44077381D01*
X53504811Y-44077381D02*
X53619096Y-44137857D01*
X53619096Y-44137857D02*
X53695287Y-44198333D01*
X53695287Y-44198333D02*
X53733382Y-44258809D01*
D11*
X64713333Y-57219580D02*
X64665714Y-57267200D01*
X64665714Y-57267200D02*
X64522857Y-57314819D01*
X64522857Y-57314819D02*
X64427619Y-57314819D01*
X64427619Y-57314819D02*
X64284762Y-57267200D01*
X64284762Y-57267200D02*
X64189524Y-57171961D01*
X64189524Y-57171961D02*
X64141905Y-57076723D01*
X64141905Y-57076723D02*
X64094286Y-56886247D01*
X64094286Y-56886247D02*
X64094286Y-56743390D01*
X64094286Y-56743390D02*
X64141905Y-56552914D01*
X64141905Y-56552914D02*
X64189524Y-56457676D01*
X64189524Y-56457676D02*
X64284762Y-56362438D01*
X64284762Y-56362438D02*
X64427619Y-56314819D01*
X64427619Y-56314819D02*
X64522857Y-56314819D01*
X64522857Y-56314819D02*
X64665714Y-56362438D01*
X64665714Y-56362438D02*
X64713333Y-56410057D01*
X65665714Y-57314819D02*
X65094286Y-57314819D01*
X65380000Y-57314819D02*
X65380000Y-56314819D01*
X65380000Y-56314819D02*
X65284762Y-56457676D01*
X65284762Y-56457676D02*
X65189524Y-56552914D01*
X65189524Y-56552914D02*
X65094286Y-56600533D01*
X80519580Y-46266666D02*
X80567200Y-46314285D01*
X80567200Y-46314285D02*
X80614819Y-46457142D01*
X80614819Y-46457142D02*
X80614819Y-46552380D01*
X80614819Y-46552380D02*
X80567200Y-46695237D01*
X80567200Y-46695237D02*
X80471961Y-46790475D01*
X80471961Y-46790475D02*
X80376723Y-46838094D01*
X80376723Y-46838094D02*
X80186247Y-46885713D01*
X80186247Y-46885713D02*
X80043390Y-46885713D01*
X80043390Y-46885713D02*
X79852914Y-46838094D01*
X79852914Y-46838094D02*
X79757676Y-46790475D01*
X79757676Y-46790475D02*
X79662438Y-46695237D01*
X79662438Y-46695237D02*
X79614819Y-46552380D01*
X79614819Y-46552380D02*
X79614819Y-46457142D01*
X79614819Y-46457142D02*
X79662438Y-46314285D01*
X79662438Y-46314285D02*
X79710057Y-46266666D01*
X79614819Y-45933332D02*
X79614819Y-45314285D01*
X79614819Y-45314285D02*
X79995771Y-45647618D01*
X79995771Y-45647618D02*
X79995771Y-45504761D01*
X79995771Y-45504761D02*
X80043390Y-45409523D01*
X80043390Y-45409523D02*
X80091009Y-45361904D01*
X80091009Y-45361904D02*
X80186247Y-45314285D01*
X80186247Y-45314285D02*
X80424342Y-45314285D01*
X80424342Y-45314285D02*
X80519580Y-45361904D01*
X80519580Y-45361904D02*
X80567200Y-45409523D01*
X80567200Y-45409523D02*
X80614819Y-45504761D01*
X80614819Y-45504761D02*
X80614819Y-45790475D01*
X80614819Y-45790475D02*
X80567200Y-45885713D01*
X80567200Y-45885713D02*
X80519580Y-45933332D01*
X80749580Y-37386666D02*
X80797200Y-37434285D01*
X80797200Y-37434285D02*
X80844819Y-37577142D01*
X80844819Y-37577142D02*
X80844819Y-37672380D01*
X80844819Y-37672380D02*
X80797200Y-37815237D01*
X80797200Y-37815237D02*
X80701961Y-37910475D01*
X80701961Y-37910475D02*
X80606723Y-37958094D01*
X80606723Y-37958094D02*
X80416247Y-38005713D01*
X80416247Y-38005713D02*
X80273390Y-38005713D01*
X80273390Y-38005713D02*
X80082914Y-37958094D01*
X80082914Y-37958094D02*
X79987676Y-37910475D01*
X79987676Y-37910475D02*
X79892438Y-37815237D01*
X79892438Y-37815237D02*
X79844819Y-37672380D01*
X79844819Y-37672380D02*
X79844819Y-37577142D01*
X79844819Y-37577142D02*
X79892438Y-37434285D01*
X79892438Y-37434285D02*
X79940057Y-37386666D01*
X79940057Y-37005713D02*
X79892438Y-36958094D01*
X79892438Y-36958094D02*
X79844819Y-36862856D01*
X79844819Y-36862856D02*
X79844819Y-36624761D01*
X79844819Y-36624761D02*
X79892438Y-36529523D01*
X79892438Y-36529523D02*
X79940057Y-36481904D01*
X79940057Y-36481904D02*
X80035295Y-36434285D01*
X80035295Y-36434285D02*
X80130533Y-36434285D01*
X80130533Y-36434285D02*
X80273390Y-36481904D01*
X80273390Y-36481904D02*
X80844819Y-37053332D01*
X80844819Y-37053332D02*
X80844819Y-36434285D01*
X71873333Y-63954819D02*
X71540000Y-63478628D01*
X71301905Y-63954819D02*
X71301905Y-62954819D01*
X71301905Y-62954819D02*
X71682857Y-62954819D01*
X71682857Y-62954819D02*
X71778095Y-63002438D01*
X71778095Y-63002438D02*
X71825714Y-63050057D01*
X71825714Y-63050057D02*
X71873333Y-63145295D01*
X71873333Y-63145295D02*
X71873333Y-63288152D01*
X71873333Y-63288152D02*
X71825714Y-63383390D01*
X71825714Y-63383390D02*
X71778095Y-63431009D01*
X71778095Y-63431009D02*
X71682857Y-63478628D01*
X71682857Y-63478628D02*
X71301905Y-63478628D01*
X72825714Y-63954819D02*
X72254286Y-63954819D01*
X72540000Y-63954819D02*
X72540000Y-62954819D01*
X72540000Y-62954819D02*
X72444762Y-63097676D01*
X72444762Y-63097676D02*
X72349524Y-63192914D01*
X72349524Y-63192914D02*
X72254286Y-63240533D01*
%TO.C,J1*%
D13*
X74590000Y-72950000D02*
X74590000Y-57750000D01*
X74590000Y-57750000D02*
X82290000Y-57750000D01*
X82290000Y-57750000D02*
X82290000Y-72950000D01*
X82290000Y-72950000D02*
X74590000Y-72950000D01*
%TO.C,J2*%
D14*
X53540000Y-59330000D02*
X54920000Y-59330000D01*
X53540000Y-60710000D02*
X53540000Y-59330000D01*
X53540000Y-61980000D02*
X53540000Y-74790000D01*
X53540000Y-61980000D02*
X56300000Y-61980000D01*
X53540000Y-74790000D02*
X56300000Y-74790000D01*
X56300000Y-61980000D02*
X56300000Y-74790000D01*
%TO.C,U2*%
D15*
X61838000Y-59237500D02*
X61838000Y-60479560D01*
X61838000Y-62440440D02*
X61838000Y-63161431D01*
X61838000Y-64838569D02*
X61838000Y-65701431D01*
X61838000Y-67378569D02*
X61838000Y-68241431D01*
X61838000Y-69918569D02*
X61838000Y-70781431D01*
X61838000Y-72458569D02*
X61838000Y-73321431D01*
X61838000Y-74998569D02*
X61838000Y-75861431D01*
X61838000Y-77538569D02*
X61838000Y-78922500D01*
X61838000Y-78922500D02*
X68442000Y-78922500D01*
X68442000Y-59237500D02*
X61838000Y-59237500D01*
X68442000Y-60621431D02*
X68442000Y-59237500D01*
X68442000Y-63161431D02*
X68442000Y-62298569D01*
X68442000Y-65701431D02*
X68442000Y-64838569D01*
X68442000Y-68241431D02*
X68442000Y-67378569D01*
X68442000Y-70781431D02*
X68442000Y-69918569D01*
X68442000Y-73321431D02*
X68442000Y-72458569D01*
X68442000Y-75861431D02*
X68442000Y-74998569D01*
X68442000Y-78922500D02*
X68442000Y-77538569D01*
X65444800Y-59237500D02*
G75*
G02*
X64835200Y-59237500I-304800J0D01*
G01*
%TO.C,U1*%
D16*
X50410000Y-51999000D02*
X50410000Y-34854000D01*
X52315000Y-53904000D02*
X66285000Y-53904000D01*
X54805000Y-32949000D02*
X54808728Y-31938728D01*
X55308728Y-31439000D02*
X63304000Y-31439000D01*
X63804000Y-31939000D02*
X63804000Y-32949000D01*
D10*
X66285000Y-32949000D02*
X52315000Y-32949000D01*
D16*
X66285000Y-32949000D02*
X52315000Y-32949000D01*
X68190000Y-51999000D02*
X68190000Y-34854000D01*
X50410000Y-34854000D02*
G75*
G02*
X52315000Y-32949000I1905000J0D01*
G01*
X52315000Y-53904000D02*
G75*
G02*
X50410000Y-51999000I1J1905001D01*
G01*
X54808728Y-31938728D02*
G75*
G02*
X55308728Y-31439028I499972J-272D01*
G01*
X63304000Y-31439000D02*
G75*
G02*
X63804000Y-31939000I0J-500000D01*
G01*
X66285000Y-32949000D02*
G75*
G02*
X68190000Y-34854000I0J-1905000D01*
G01*
X68190000Y-51999000D02*
G75*
G02*
X66285000Y-53904000I-1905001J1D01*
G01*
D17*
X50648000Y-33090000D02*
G75*
G02*
X50144000Y-33090000I-252000J0D01*
G01*
X50144000Y-33090000D02*
G75*
G02*
X50648000Y-33090000I252000J0D01*
G01*
X51791000Y-33970000D02*
G75*
G02*
X51287000Y-33970000I-252000J0D01*
G01*
X51287000Y-33970000D02*
G75*
G02*
X51791000Y-33970000I252000J0D01*
G01*
%TO.C,C1*%
D14*
X61180000Y-55540000D02*
X68620000Y-55540000D01*
X61180000Y-58280000D02*
X61180000Y-55540000D01*
X68620000Y-55540000D02*
X68620000Y-58280000D01*
X68620000Y-58280000D02*
X61180000Y-58280000D01*
%TO.C,C3*%
X73870000Y-46820000D02*
X70893000Y-46820000D01*
X73870000Y-46860000D02*
X70901000Y-46860000D01*
X73870000Y-46900000D02*
X70908000Y-46900000D01*
X73870000Y-46940000D02*
X70917000Y-46940000D01*
X73870000Y-46980000D02*
X70925000Y-46980000D01*
X73870000Y-47020000D02*
X70934000Y-47020000D01*
X73870000Y-47060000D02*
X70943000Y-47060000D01*
X73870000Y-47100000D02*
X70953000Y-47100000D01*
X73870000Y-47140000D02*
X70963000Y-47140000D01*
X73870000Y-47180000D02*
X70974000Y-47180000D01*
X73870000Y-47220000D02*
X70985000Y-47220000D01*
X73870000Y-47260000D02*
X70997000Y-47260000D01*
X73870000Y-47300000D02*
X71009000Y-47300000D01*
X73870000Y-47340000D02*
X71021000Y-47340000D01*
X73870000Y-47380000D02*
X71034000Y-47380000D01*
X73870000Y-47420000D02*
X71047000Y-47420000D01*
X73870000Y-47460000D02*
X71061000Y-47460000D01*
X73870000Y-47500000D02*
X71075000Y-47500000D01*
X73870000Y-47540000D02*
X71090000Y-47540000D01*
X73870000Y-47580000D02*
X71105000Y-47580000D01*
X73870000Y-47620000D02*
X71121000Y-47620000D01*
X73870000Y-47660000D02*
X71137000Y-47660000D01*
X73870000Y-47700000D02*
X71153000Y-47700000D01*
X73870000Y-47740000D02*
X71170000Y-47740000D01*
X73870000Y-47780000D02*
X71188000Y-47780000D01*
X73870000Y-47820000D02*
X71206000Y-47820000D01*
X73870000Y-47860000D02*
X71225000Y-47860000D01*
X73870000Y-47900000D02*
X71244000Y-47900000D01*
X73870000Y-47940000D02*
X71264000Y-47940000D01*
X73870000Y-47980000D02*
X71284000Y-47980000D01*
X73870000Y-48020000D02*
X71305000Y-48020000D01*
X73870000Y-48060000D02*
X71326000Y-48060000D01*
X73870000Y-48100000D02*
X71348000Y-48100000D01*
X73870000Y-48140000D02*
X71371000Y-48140000D01*
X73870000Y-48180000D02*
X71394000Y-48180000D01*
X73870000Y-48220000D02*
X71417000Y-48220000D01*
X73870000Y-48260000D02*
X71442000Y-48260000D01*
X73870000Y-48300000D02*
X71467000Y-48300000D01*
X73870000Y-48340000D02*
X71492000Y-48340000D01*
X73870000Y-48380000D02*
X71518000Y-48380000D01*
X73870000Y-48420000D02*
X71545000Y-48420000D01*
X73870000Y-48460000D02*
X71573000Y-48460000D01*
X73870000Y-48500000D02*
X71601000Y-48500000D01*
X73870000Y-48540000D02*
X71630000Y-48540000D01*
X73870000Y-48580000D02*
X71660000Y-48580000D01*
X73870000Y-48620000D02*
X71691000Y-48620000D01*
X73870000Y-48660000D02*
X71722000Y-48660000D01*
X73870000Y-48700000D02*
X71754000Y-48700000D01*
X73870000Y-48740000D02*
X71787000Y-48740000D01*
X73870000Y-48780000D02*
X71821000Y-48780000D01*
X73870000Y-48820000D02*
X71855000Y-48820000D01*
X73870000Y-48860000D02*
X71891000Y-48860000D01*
X75443000Y-50180000D02*
X74377000Y-50180000D01*
X75678000Y-50140000D02*
X74142000Y-50140000D01*
X75857000Y-50100000D02*
X73963000Y-50100000D01*
X76007000Y-50060000D02*
X73813000Y-50060000D01*
X76138000Y-50020000D02*
X73682000Y-50020000D01*
X76256000Y-49980000D02*
X73564000Y-49980000D01*
X76363000Y-49940000D02*
X73457000Y-49940000D01*
X76462000Y-49900000D02*
X73358000Y-49900000D01*
X76554000Y-49860000D02*
X73266000Y-49860000D01*
X76641000Y-49820000D02*
X73179000Y-49820000D01*
X76723000Y-49780000D02*
X73097000Y-49780000D01*
X76800000Y-49740000D02*
X73020000Y-49740000D01*
X76874000Y-49700000D02*
X72946000Y-49700000D01*
X76944000Y-49660000D02*
X72876000Y-49660000D01*
X77011000Y-49620000D02*
X72809000Y-49620000D01*
X77075000Y-49580000D02*
X72745000Y-49580000D01*
X77137000Y-49540000D02*
X72683000Y-49540000D01*
X77197000Y-49500000D02*
X72623000Y-49500000D01*
X77225000Y-41690302D02*
X77225000Y-42490302D01*
X77254000Y-49460000D02*
X72566000Y-49460000D01*
X77310000Y-49420000D02*
X72510000Y-49420000D01*
X77363000Y-49380000D02*
X72457000Y-49380000D01*
X77415000Y-49340000D02*
X72405000Y-49340000D01*
X77465000Y-49300000D02*
X72355000Y-49300000D01*
X77514000Y-49260000D02*
X72306000Y-49260000D01*
X77561000Y-49220000D02*
X72259000Y-49220000D01*
X77606000Y-49180000D02*
X72214000Y-49180000D01*
X77625000Y-42090302D02*
X76825000Y-42090302D01*
X77651000Y-49140000D02*
X72169000Y-49140000D01*
X77694000Y-49100000D02*
X72126000Y-49100000D01*
X77736000Y-49060000D02*
X72084000Y-49060000D01*
X77777000Y-49020000D02*
X72043000Y-49020000D01*
X77816000Y-48980000D02*
X72004000Y-48980000D01*
X77855000Y-48940000D02*
X71965000Y-48940000D01*
X77892000Y-48900000D02*
X71928000Y-48900000D01*
X77929000Y-48860000D02*
X75950000Y-48860000D01*
X77965000Y-48820000D02*
X75950000Y-48820000D01*
X77999000Y-48780000D02*
X75950000Y-48780000D01*
X78033000Y-48740000D02*
X75950000Y-48740000D01*
X78066000Y-48700000D02*
X75950000Y-48700000D01*
X78098000Y-48660000D02*
X75950000Y-48660000D01*
X78129000Y-48620000D02*
X75950000Y-48620000D01*
X78160000Y-48580000D02*
X75950000Y-48580000D01*
X78190000Y-48540000D02*
X75950000Y-48540000D01*
X78219000Y-48500000D02*
X75950000Y-48500000D01*
X78247000Y-48460000D02*
X75950000Y-48460000D01*
X78275000Y-48420000D02*
X75950000Y-48420000D01*
X78302000Y-48380000D02*
X75950000Y-48380000D01*
X78328000Y-48340000D02*
X75950000Y-48340000D01*
X78353000Y-48300000D02*
X75950000Y-48300000D01*
X78378000Y-48260000D02*
X75950000Y-48260000D01*
X78403000Y-48220000D02*
X75950000Y-48220000D01*
X78426000Y-48180000D02*
X75950000Y-48180000D01*
X78449000Y-48140000D02*
X75950000Y-48140000D01*
X78472000Y-48100000D02*
X75950000Y-48100000D01*
X78494000Y-48060000D02*
X75950000Y-48060000D01*
X78515000Y-48020000D02*
X75950000Y-48020000D01*
X78536000Y-47980000D02*
X75950000Y-47980000D01*
X78556000Y-47940000D02*
X75950000Y-47940000D01*
X78576000Y-47900000D02*
X75950000Y-47900000D01*
X78595000Y-47860000D02*
X75950000Y-47860000D01*
X78614000Y-47820000D02*
X75950000Y-47820000D01*
X78632000Y-47780000D02*
X75950000Y-47780000D01*
X78650000Y-47740000D02*
X75950000Y-47740000D01*
X78667000Y-47700000D02*
X75950000Y-47700000D01*
X78683000Y-47660000D02*
X75950000Y-47660000D01*
X78699000Y-47620000D02*
X75950000Y-47620000D01*
X78715000Y-47580000D02*
X75950000Y-47580000D01*
X78730000Y-47540000D02*
X75950000Y-47540000D01*
X78745000Y-47500000D02*
X75950000Y-47500000D01*
X78759000Y-47460000D02*
X75950000Y-47460000D01*
X78773000Y-47420000D02*
X75950000Y-47420000D01*
X78786000Y-47380000D02*
X75950000Y-47380000D01*
X78799000Y-47340000D02*
X75950000Y-47340000D01*
X78811000Y-47300000D02*
X75950000Y-47300000D01*
X78823000Y-47260000D02*
X75950000Y-47260000D01*
X78835000Y-47220000D02*
X75950000Y-47220000D01*
X78846000Y-47180000D02*
X75950000Y-47180000D01*
X78857000Y-47140000D02*
X75950000Y-47140000D01*
X78867000Y-47100000D02*
X75950000Y-47100000D01*
X78877000Y-47060000D02*
X75950000Y-47060000D01*
X78886000Y-47020000D02*
X75950000Y-47020000D01*
X78895000Y-46980000D02*
X75950000Y-46980000D01*
X78903000Y-46940000D02*
X75950000Y-46940000D01*
X78912000Y-46900000D02*
X75950000Y-46900000D01*
X78919000Y-46860000D02*
X75950000Y-46860000D01*
X78927000Y-46820000D02*
X75950000Y-46820000D01*
X78933000Y-46780000D02*
X70887000Y-46780000D01*
X78940000Y-46740000D02*
X70880000Y-46740000D01*
X78946000Y-46700000D02*
X70874000Y-46700000D01*
X78952000Y-46660000D02*
X70868000Y-46660000D01*
X78957000Y-46620000D02*
X70863000Y-46620000D01*
X78962000Y-46580000D02*
X70858000Y-46580000D01*
X78966000Y-46540000D02*
X70854000Y-46540000D01*
X78971000Y-46500000D02*
X70849000Y-46500000D01*
X78974000Y-46460000D02*
X70846000Y-46460000D01*
X78978000Y-46420000D02*
X70842000Y-46420000D01*
X78980000Y-46380000D02*
X70840000Y-46380000D01*
X78983000Y-46340000D02*
X70837000Y-46340000D01*
X78985000Y-46300000D02*
X70835000Y-46300000D01*
X78987000Y-46260000D02*
X70833000Y-46260000D01*
X78988000Y-46220000D02*
X70832000Y-46220000D01*
X78989000Y-46180000D02*
X70831000Y-46180000D01*
X78990000Y-46100000D02*
X70830000Y-46100000D01*
X78990000Y-46140000D02*
X70830000Y-46140000D01*
X79030000Y-46100000D02*
G75*
G02*
X70790000Y-46100000I-4120000J0D01*
G01*
X70790000Y-46100000D02*
G75*
G02*
X79030000Y-46100000I4120000J0D01*
G01*
%TO.C,C2*%
X74100000Y-37940000D02*
X71123000Y-37940000D01*
X74100000Y-37980000D02*
X71131000Y-37980000D01*
X74100000Y-38020000D02*
X71138000Y-38020000D01*
X74100000Y-38060000D02*
X71147000Y-38060000D01*
X74100000Y-38100000D02*
X71155000Y-38100000D01*
X74100000Y-38140000D02*
X71164000Y-38140000D01*
X74100000Y-38180000D02*
X71173000Y-38180000D01*
X74100000Y-38220000D02*
X71183000Y-38220000D01*
X74100000Y-38260000D02*
X71193000Y-38260000D01*
X74100000Y-38300000D02*
X71204000Y-38300000D01*
X74100000Y-38340000D02*
X71215000Y-38340000D01*
X74100000Y-38380000D02*
X71227000Y-38380000D01*
X74100000Y-38420000D02*
X71239000Y-38420000D01*
X74100000Y-38460000D02*
X71251000Y-38460000D01*
X74100000Y-38500000D02*
X71264000Y-38500000D01*
X74100000Y-38540000D02*
X71277000Y-38540000D01*
X74100000Y-38580000D02*
X71291000Y-38580000D01*
X74100000Y-38620000D02*
X71305000Y-38620000D01*
X74100000Y-38660000D02*
X71320000Y-38660000D01*
X74100000Y-38700000D02*
X71335000Y-38700000D01*
X74100000Y-38740000D02*
X71351000Y-38740000D01*
X74100000Y-38780000D02*
X71367000Y-38780000D01*
X74100000Y-38820000D02*
X71383000Y-38820000D01*
X74100000Y-38860000D02*
X71400000Y-38860000D01*
X74100000Y-38900000D02*
X71418000Y-38900000D01*
X74100000Y-38940000D02*
X71436000Y-38940000D01*
X74100000Y-38980000D02*
X71455000Y-38980000D01*
X74100000Y-39020000D02*
X71474000Y-39020000D01*
X74100000Y-39060000D02*
X71494000Y-39060000D01*
X74100000Y-39100000D02*
X71514000Y-39100000D01*
X74100000Y-39140000D02*
X71535000Y-39140000D01*
X74100000Y-39180000D02*
X71556000Y-39180000D01*
X74100000Y-39220000D02*
X71578000Y-39220000D01*
X74100000Y-39260000D02*
X71601000Y-39260000D01*
X74100000Y-39300000D02*
X71624000Y-39300000D01*
X74100000Y-39340000D02*
X71647000Y-39340000D01*
X74100000Y-39380000D02*
X71672000Y-39380000D01*
X74100000Y-39420000D02*
X71697000Y-39420000D01*
X74100000Y-39460000D02*
X71722000Y-39460000D01*
X74100000Y-39500000D02*
X71748000Y-39500000D01*
X74100000Y-39540000D02*
X71775000Y-39540000D01*
X74100000Y-39580000D02*
X71803000Y-39580000D01*
X74100000Y-39620000D02*
X71831000Y-39620000D01*
X74100000Y-39660000D02*
X71860000Y-39660000D01*
X74100000Y-39700000D02*
X71890000Y-39700000D01*
X74100000Y-39740000D02*
X71921000Y-39740000D01*
X74100000Y-39780000D02*
X71952000Y-39780000D01*
X74100000Y-39820000D02*
X71984000Y-39820000D01*
X74100000Y-39860000D02*
X72017000Y-39860000D01*
X74100000Y-39900000D02*
X72051000Y-39900000D01*
X74100000Y-39940000D02*
X72085000Y-39940000D01*
X74100000Y-39980000D02*
X72121000Y-39980000D01*
X75673000Y-41300000D02*
X74607000Y-41300000D01*
X75908000Y-41260000D02*
X74372000Y-41260000D01*
X76087000Y-41220000D02*
X74193000Y-41220000D01*
X76237000Y-41180000D02*
X74043000Y-41180000D01*
X76368000Y-41140000D02*
X73912000Y-41140000D01*
X76486000Y-41100000D02*
X73794000Y-41100000D01*
X76593000Y-41060000D02*
X73687000Y-41060000D01*
X76692000Y-41020000D02*
X73588000Y-41020000D01*
X76784000Y-40980000D02*
X73496000Y-40980000D01*
X76871000Y-40940000D02*
X73409000Y-40940000D01*
X76953000Y-40900000D02*
X73327000Y-40900000D01*
X77030000Y-40860000D02*
X73250000Y-40860000D01*
X77104000Y-40820000D02*
X73176000Y-40820000D01*
X77174000Y-40780000D02*
X73106000Y-40780000D01*
X77241000Y-40740000D02*
X73039000Y-40740000D01*
X77305000Y-40700000D02*
X72975000Y-40700000D01*
X77367000Y-40660000D02*
X72913000Y-40660000D01*
X77427000Y-40620000D02*
X72853000Y-40620000D01*
X77455000Y-32810302D02*
X77455000Y-33610302D01*
X77484000Y-40580000D02*
X72796000Y-40580000D01*
X77540000Y-40540000D02*
X72740000Y-40540000D01*
X77593000Y-40500000D02*
X72687000Y-40500000D01*
X77645000Y-40460000D02*
X72635000Y-40460000D01*
X77695000Y-40420000D02*
X72585000Y-40420000D01*
X77744000Y-40380000D02*
X72536000Y-40380000D01*
X77791000Y-40340000D02*
X72489000Y-40340000D01*
X77836000Y-40300000D02*
X72444000Y-40300000D01*
X77855000Y-33210302D02*
X77055000Y-33210302D01*
X77881000Y-40260000D02*
X72399000Y-40260000D01*
X77924000Y-40220000D02*
X72356000Y-40220000D01*
X77966000Y-40180000D02*
X72314000Y-40180000D01*
X78007000Y-40140000D02*
X72273000Y-40140000D01*
X78046000Y-40100000D02*
X72234000Y-40100000D01*
X78085000Y-40060000D02*
X72195000Y-40060000D01*
X78122000Y-40020000D02*
X72158000Y-40020000D01*
X78159000Y-39980000D02*
X76180000Y-39980000D01*
X78195000Y-39940000D02*
X76180000Y-39940000D01*
X78229000Y-39900000D02*
X76180000Y-39900000D01*
X78263000Y-39860000D02*
X76180000Y-39860000D01*
X78296000Y-39820000D02*
X76180000Y-39820000D01*
X78328000Y-39780000D02*
X76180000Y-39780000D01*
X78359000Y-39740000D02*
X76180000Y-39740000D01*
X78390000Y-39700000D02*
X76180000Y-39700000D01*
X78420000Y-39660000D02*
X76180000Y-39660000D01*
X78449000Y-39620000D02*
X76180000Y-39620000D01*
X78477000Y-39580000D02*
X76180000Y-39580000D01*
X78505000Y-39540000D02*
X76180000Y-39540000D01*
X78532000Y-39500000D02*
X76180000Y-39500000D01*
X78558000Y-39460000D02*
X76180000Y-39460000D01*
X78583000Y-39420000D02*
X76180000Y-39420000D01*
X78608000Y-39380000D02*
X76180000Y-39380000D01*
X78633000Y-39340000D02*
X76180000Y-39340000D01*
X78656000Y-39300000D02*
X76180000Y-39300000D01*
X78679000Y-39260000D02*
X76180000Y-39260000D01*
X78702000Y-39220000D02*
X76180000Y-39220000D01*
X78724000Y-39180000D02*
X76180000Y-39180000D01*
X78745000Y-39140000D02*
X76180000Y-39140000D01*
X78766000Y-39100000D02*
X76180000Y-39100000D01*
X78786000Y-39060000D02*
X76180000Y-39060000D01*
X78806000Y-39020000D02*
X76180000Y-39020000D01*
X78825000Y-38980000D02*
X76180000Y-38980000D01*
X78844000Y-38940000D02*
X76180000Y-38940000D01*
X78862000Y-38900000D02*
X76180000Y-38900000D01*
X78880000Y-38860000D02*
X76180000Y-38860000D01*
X78897000Y-38820000D02*
X76180000Y-38820000D01*
X78913000Y-38780000D02*
X76180000Y-38780000D01*
X78929000Y-38740000D02*
X76180000Y-38740000D01*
X78945000Y-38700000D02*
X76180000Y-38700000D01*
X78960000Y-38660000D02*
X76180000Y-38660000D01*
X78975000Y-38620000D02*
X76180000Y-38620000D01*
X78989000Y-38580000D02*
X76180000Y-38580000D01*
X79003000Y-38540000D02*
X76180000Y-38540000D01*
X79016000Y-38500000D02*
X76180000Y-38500000D01*
X79029000Y-38460000D02*
X76180000Y-38460000D01*
X79041000Y-38420000D02*
X76180000Y-38420000D01*
X79053000Y-38380000D02*
X76180000Y-38380000D01*
X79065000Y-38340000D02*
X76180000Y-38340000D01*
X79076000Y-38300000D02*
X76180000Y-38300000D01*
X79087000Y-38260000D02*
X76180000Y-38260000D01*
X79097000Y-38220000D02*
X76180000Y-38220000D01*
X79107000Y-38180000D02*
X76180000Y-38180000D01*
X79116000Y-38140000D02*
X76180000Y-38140000D01*
X79125000Y-38100000D02*
X76180000Y-38100000D01*
X79133000Y-38060000D02*
X76180000Y-38060000D01*
X79142000Y-38020000D02*
X76180000Y-38020000D01*
X79149000Y-37980000D02*
X76180000Y-37980000D01*
X79157000Y-37940000D02*
X76180000Y-37940000D01*
X79163000Y-37900000D02*
X71117000Y-37900000D01*
X79170000Y-37860000D02*
X71110000Y-37860000D01*
X79176000Y-37820000D02*
X71104000Y-37820000D01*
X79182000Y-37780000D02*
X71098000Y-37780000D01*
X79187000Y-37740000D02*
X71093000Y-37740000D01*
X79192000Y-37700000D02*
X71088000Y-37700000D01*
X79196000Y-37660000D02*
X71084000Y-37660000D01*
X79201000Y-37620000D02*
X71079000Y-37620000D01*
X79204000Y-37580000D02*
X71076000Y-37580000D01*
X79208000Y-37540000D02*
X71072000Y-37540000D01*
X79210000Y-37500000D02*
X71070000Y-37500000D01*
X79213000Y-37460000D02*
X71067000Y-37460000D01*
X79215000Y-37420000D02*
X71065000Y-37420000D01*
X79217000Y-37380000D02*
X71063000Y-37380000D01*
X79218000Y-37340000D02*
X71062000Y-37340000D01*
X79219000Y-37300000D02*
X71061000Y-37300000D01*
X79220000Y-37220000D02*
X71060000Y-37220000D01*
X79220000Y-37260000D02*
X71060000Y-37260000D01*
X79260000Y-37220000D02*
G75*
G02*
X71020000Y-37220000I-4120000J0D01*
G01*
X71020000Y-37220000D02*
G75*
G02*
X79260000Y-37220000I4120000J0D01*
G01*
%TO.C,R1*%
X71507133Y-66240000D02*
G75*
G02*
X71507133Y-64600000I-417133J820000D01*
G01*
%TD*%
M02*
