%TF.GenerationSoftware,KiCad,Pcbnew,10.0.3*%
%TF.CreationDate,2026-06-29T14:01:57-05:00*%
%TF.ProjectId,reactive-led-board,72656163-7469-4766-952d-6c65642d626f,rev?*%
%TF.SameCoordinates,Original*%
%TF.FileFunction,Copper,L2,Bot*%
%TF.FilePolarity,Positive*%
%FSLAX46Y46*%
G04 Gerber Fmt 4.6, Leading zero omitted, Abs format (unit mm)*
G04 Created by KiCad (PCBNEW 10.0.3) date 2026-06-29 14:01:57*
%MOMM*%
%LPD*%
G01*
G04 APERTURE LIST*
G04 Aperture macros list*
%AMRoundRect*
0 Rectangle with rounded corners*
0 $1 Rounding radius*
0 $2 $3 $4 $5 $6 $7 $8 $9 X,Y pos of 4 corners*
0 Add a 4 corners polygon primitive as box body*
4,1,4,$2,$3,$4,$5,$6,$7,$8,$9,$2,$3,0*
0 Add four circle primitives for the rounded corners*
1,1,$1+$1,$2,$3*
1,1,$1+$1,$4,$5*
1,1,$1+$1,$6,$7*
1,1,$1+$1,$8,$9*
0 Add four rect primitives between the rounded corners*
20,1,$1+$1,$2,$3,$4,$5,0*
20,1,$1+$1,$4,$5,$6,$7,0*
20,1,$1+$1,$6,$7,$8,$9,0*
20,1,$1+$1,$8,$9,$2,$3,0*%
G04 Aperture macros list end*
%TA.AperFunction,ComponentPad*%
%ADD10C,1.950000*%
%TD*%
%TA.AperFunction,ComponentPad*%
%ADD11R,1.700000X1.700000*%
%TD*%
%TA.AperFunction,ComponentPad*%
%ADD12C,1.700000*%
%TD*%
%TA.AperFunction,ComponentPad*%
%ADD13R,1.295400X1.295400*%
%TD*%
%TA.AperFunction,ComponentPad*%
%ADD14C,1.295400*%
%TD*%
%TA.AperFunction,ComponentPad*%
%ADD15C,1.524000*%
%TD*%
%TA.AperFunction,ComponentPad*%
%ADD16C,1.500000*%
%TD*%
%TA.AperFunction,ComponentPad*%
%ADD17RoundRect,0.250000X-0.550000X0.550000X-0.550000X-0.550000X0.550000X-0.550000X0.550000X0.550000X0*%
%TD*%
%TA.AperFunction,ComponentPad*%
%ADD18C,1.600000*%
%TD*%
%TA.AperFunction,ComponentPad*%
%ADD19C,1.400000*%
%TD*%
%TA.AperFunction,ViaPad*%
%ADD20C,0.600000*%
%TD*%
%TA.AperFunction,Conductor*%
%ADD21C,0.200000*%
%TD*%
G04 APERTURE END LIST*
D10*
%TO.P,J1,1,Pin_1_1*%
%TO.N,GND*%
X78190000Y-70350000D03*
%TO.P,J1,2,Pin_2_2*%
%TO.N,LED-DATA*%
X78190000Y-65350000D03*
%TO.P,J1,3,Pin_3_3*%
%TO.N,+5V*%
X78190000Y-60350000D03*
%TD*%
D11*
%TO.P,J2,1,Pin_1_1*%
%TO.N,+3V3*%
X54920000Y-60710000D03*
D12*
%TO.P,J2,2,Pin_2_2*%
%TO.N,GND*%
X54920000Y-63250000D03*
%TO.P,J2,3,Pin_3_3*%
%TO.N,BCLK*%
X54920000Y-65790000D03*
%TO.P,J2,4,Pin_4_4*%
%TO.N,DOUT*%
X54920000Y-68330000D03*
%TO.P,J2,5,Pin_5_5*%
%TO.N,WS*%
X54920000Y-70870000D03*
%TO.P,J2,6,Pin_6_6*%
%TO.N,unconnected-(J2-Pin_6-Pad6)*%
X54920000Y-73410000D03*
%TD*%
D13*
%TO.P,U2,1,\u002A1OE_1*%
%TO.N,GND*%
X61330000Y-61460000D03*
D14*
%TO.P,U2,2,1A_2*%
%TO.N,D4*%
X61330000Y-64000000D03*
%TO.P,U2,3,1Y_3*%
%TO.N,Net-(U2-1Y)*%
X61330000Y-66540000D03*
%TO.P,U2,4,\u002A2OE_4*%
%TO.N,GND*%
X61330000Y-69080000D03*
%TO.P,U2,5,2A_5*%
X61330000Y-71620000D03*
%TO.P,U2,6,2Y_6*%
%TO.N,unconnected-(U2-2Y-Pad6)*%
X61330000Y-74160000D03*
%TO.P,U2,7,GND_7*%
%TO.N,GND*%
X61330000Y-76700000D03*
%TO.P,U2,8,3Y_8*%
%TO.N,unconnected-(U2-3Y-Pad8)*%
X68950000Y-76700000D03*
%TO.P,U2,9,3A_9*%
%TO.N,GND*%
X68950000Y-74160000D03*
%TO.P,U2,10,\u002A3OE_10*%
X68950000Y-71620000D03*
%TO.P,U2,11,4Y_11*%
%TO.N,unconnected-(U2-4Y-Pad11)*%
X68950000Y-69080000D03*
%TO.P,U2,12,4A_12*%
%TO.N,GND*%
X68950000Y-66540000D03*
%TO.P,U2,13,\u002A4OE_13*%
X68950000Y-64000000D03*
%TO.P,U2,14,VCC_14*%
%TO.N,+5V*%
X68950000Y-61460000D03*
%TD*%
D15*
%TO.P,U1,1,GPIO1_A0_D0_1*%
%TO.N,BCLK*%
X51680000Y-35870000D03*
%TO.P,U1,2,GPIO2_A1_D1_2*%
%TO.N,DOUT*%
X51680000Y-38410000D03*
%TO.P,U1,3,GPIO3_A2_D2_3*%
%TO.N,WS*%
X51680000Y-40950000D03*
%TO.P,U1,4,GPIO4_A3_D3_4*%
%TO.N,unconnected-(U1-GPIO4_A3_D3-Pad4)*%
X51680000Y-43490000D03*
%TO.P,U1,5,GPIO5_A4_D4_SDA_5*%
%TO.N,D4*%
X51680000Y-46030000D03*
%TO.P,U1,6,GPIO6_A5_D5_SCL_6*%
%TO.N,unconnected-(U1-GPIO6_A5_D5_SCL-Pad6)*%
X51680000Y-48570000D03*
%TO.P,U1,7,GPIO43_D6_TX_7*%
%TO.N,unconnected-(U1-GPIO43_D6_TX-Pad7)_1*%
X51680000Y-51110000D03*
%TO.P,U1,8,GPIO44_D7_RX_8*%
%TO.N,unconnected-(U1-GPIO44_D7_RX-Pad8)_1*%
X66920000Y-51110000D03*
%TO.P,U1,9,GPIO7_A8_D8_SCK_9*%
%TO.N,unconnected-(U1-GPIO7_A8_D8_SCK-Pad9)*%
X66920000Y-48570000D03*
%TO.P,U1,10,GPIO8_A9_D9_MISO_10*%
%TO.N,unconnected-(U1-GPIO8_A9_D9_MISO-Pad10)_1*%
X66920000Y-46030000D03*
%TO.P,U1,11,GPIO9_A10_D10_MOSI_11*%
%TO.N,unconnected-(U1-GPIO9_A10_D10_MOSI-Pad11)_1*%
X66920000Y-43490000D03*
%TO.P,U1,12,3V3_12*%
%TO.N,+3V3*%
X66920000Y-40950000D03*
%TO.P,U1,13,GND_13*%
%TO.N,GND*%
X66920000Y-38410000D03*
%TO.P,U1,14,VBUS_14*%
%TO.N,+5V*%
X66920000Y-35870000D03*
%TD*%
D16*
%TO.P,C1,1*%
%TO.N,+5V*%
X67400000Y-56910000D03*
%TO.P,C1,2*%
%TO.N,GND*%
X62400000Y-56910000D03*
%TD*%
D17*
%TO.P,C3,1*%
%TO.N,+3V3*%
X74910000Y-44350000D03*
D18*
%TO.P,C3,2*%
%TO.N,GND*%
X74910000Y-47850000D03*
%TD*%
D17*
%TO.P,C2,1*%
%TO.N,+5V*%
X75140000Y-35470000D03*
D18*
%TO.P,C2,2*%
%TO.N,GND*%
X75140000Y-38970000D03*
%TD*%
D19*
%TO.P,R1,1*%
%TO.N,Net-(U2-1Y)*%
X71090000Y-65420000D03*
%TO.P,R1,2*%
%TO.N,LED-DATA*%
X72990000Y-65420000D03*
%TD*%
D20*
%TO.N,BCLK*%
X54780000Y-50880000D03*
%TD*%
%TO.N,+5V*%
D21*
X67400000Y-56910000D02*
X65858000Y-55368000D01*
X65858000Y-55368000D02*
X65858000Y-36932000D01*
X65858000Y-36932000D02*
X66920000Y-35870000D01*
%TO.N,BCLK*%
X54780000Y-50880000D02*
X57610000Y-53710000D01*
X57610000Y-53710000D02*
X57610000Y-63100000D01*
X57610000Y-63100000D02*
X54920000Y-65790000D01*
%TO.N,D4*%
X61330000Y-64000000D02*
X60382300Y-63052300D01*
X60382300Y-54732300D02*
X51680000Y-46030000D01*
X60382300Y-63052300D02*
X60382300Y-54732300D01*
%TD*%
%TA.AperFunction,Conductor*%
%TO.N,GND*%
G36*
X79581274Y-32982235D02*
G01*
X79835819Y-33025277D01*
X79849367Y-33028357D01*
X80159347Y-33117395D01*
X80172459Y-33121971D01*
X80470521Y-33245154D01*
X80483040Y-33251171D01*
X80765434Y-33406953D01*
X80777199Y-33414332D01*
X81040364Y-33600744D01*
X81051239Y-33609402D01*
X81088376Y-33642536D01*
X81291885Y-33824113D01*
X81301725Y-33833938D01*
X81516807Y-34074230D01*
X81525474Y-34085079D01*
X81712320Y-34347971D01*
X81719721Y-34359730D01*
X81875942Y-34641862D01*
X81881985Y-34654385D01*
X82005636Y-34952236D01*
X82010239Y-34965358D01*
X82099762Y-35275175D01*
X82102866Y-35288723D01*
X82107835Y-35317825D01*
X82157140Y-35606625D01*
X82158707Y-35620442D01*
X82177243Y-35945879D01*
X82177444Y-35952832D01*
X82194528Y-57472308D01*
X82209909Y-76848495D01*
X82209720Y-76855435D01*
X82191768Y-77180309D01*
X82190228Y-77194102D01*
X82136661Y-77511508D01*
X82133589Y-77525044D01*
X82044882Y-77834483D01*
X82040316Y-77847590D01*
X81917589Y-78145160D01*
X81911587Y-78157675D01*
X81756365Y-78439681D01*
X81749003Y-78451447D01*
X81563239Y-78714337D01*
X81554607Y-78725206D01*
X81340632Y-78965684D01*
X81330840Y-78975520D01*
X81091332Y-79190577D01*
X81080502Y-79199258D01*
X80818451Y-79386206D01*
X80806718Y-79393622D01*
X80525423Y-79550110D01*
X80512936Y-79556168D01*
X80215904Y-79680243D01*
X80202817Y-79684867D01*
X79893802Y-79774963D01*
X79880281Y-79778097D01*
X79563107Y-79833099D01*
X79549319Y-79834701D01*
X79224526Y-79854117D01*
X79217588Y-79854337D01*
X41964114Y-79992806D01*
X41957151Y-79992636D01*
X41631161Y-79975518D01*
X41617317Y-79974008D01*
X41298743Y-79921019D01*
X41285157Y-79917967D01*
X40974523Y-79829590D01*
X40961364Y-79825033D01*
X40662610Y-79702388D01*
X40650045Y-79696385D01*
X40366918Y-79541012D01*
X40355106Y-79533638D01*
X40091188Y-79347502D01*
X40080277Y-79338850D01*
X39838887Y-79124291D01*
X39829015Y-79114469D01*
X39613216Y-78874209D01*
X39604511Y-78863349D01*
X39416994Y-78600385D01*
X39409567Y-78588623D01*
X39326822Y-78439681D01*
X39252725Y-78306304D01*
X39246657Y-78293771D01*
X39189959Y-78157675D01*
X39122456Y-77995644D01*
X39117839Y-77982531D01*
X39027848Y-77672356D01*
X39024725Y-77658788D01*
X38970082Y-77340488D01*
X38968500Y-77326654D01*
X38967050Y-77301528D01*
X38949686Y-77000722D01*
X38949481Y-76993819D01*
X38949272Y-76851964D01*
X38948914Y-76609668D01*
X60182300Y-76609668D01*
X60182300Y-76790331D01*
X60210559Y-76968750D01*
X60266386Y-77140566D01*
X60348401Y-77301529D01*
X60359558Y-77316886D01*
X60359559Y-77316886D01*
X60936300Y-76740145D01*
X60936300Y-76751832D01*
X60963130Y-76851962D01*
X61014962Y-76941737D01*
X61088263Y-77015038D01*
X61178038Y-77066870D01*
X61278168Y-77093700D01*
X61289853Y-77093700D01*
X60713112Y-77670438D01*
X60713112Y-77670439D01*
X60728477Y-77681602D01*
X60889433Y-77763613D01*
X61061249Y-77819440D01*
X61239669Y-77847700D01*
X61420331Y-77847700D01*
X61598750Y-77819440D01*
X61770566Y-77763613D01*
X61931528Y-77681599D01*
X61931532Y-77681597D01*
X61946886Y-77670440D01*
X61946887Y-77670439D01*
X61370148Y-77093700D01*
X61381832Y-77093700D01*
X61481962Y-77066870D01*
X61571737Y-77015038D01*
X61645038Y-76941737D01*
X61696870Y-76851962D01*
X61723700Y-76751832D01*
X61723700Y-76740147D01*
X62300439Y-77316887D01*
X62300440Y-77316886D01*
X62311597Y-77301532D01*
X62311599Y-77301528D01*
X62393613Y-77140566D01*
X62449440Y-76968750D01*
X62477700Y-76790331D01*
X62477700Y-76609668D01*
X62477695Y-76609635D01*
X67801800Y-76609635D01*
X67801800Y-76790364D01*
X67830053Y-76968750D01*
X67830073Y-76968871D01*
X67885922Y-77140756D01*
X67967840Y-77301529D01*
X67967974Y-77301791D01*
X68074196Y-77447996D01*
X68202003Y-77575803D01*
X68338817Y-77675202D01*
X68348212Y-77682028D01*
X68509244Y-77764078D01*
X68681129Y-77819927D01*
X68859635Y-77848200D01*
X68859636Y-77848200D01*
X69040364Y-77848200D01*
X69040365Y-77848200D01*
X69218871Y-77819927D01*
X69390756Y-77764078D01*
X69551788Y-77682028D01*
X69633879Y-77622385D01*
X69697996Y-77575803D01*
X69697998Y-77575800D01*
X69698002Y-77575798D01*
X69825798Y-77448002D01*
X69825800Y-77447998D01*
X69825803Y-77447996D01*
X69903911Y-77340488D01*
X69932028Y-77301788D01*
X70014078Y-77140756D01*
X70069927Y-76968871D01*
X70098200Y-76790365D01*
X70098200Y-76609635D01*
X70069927Y-76431129D01*
X70014078Y-76259244D01*
X69932028Y-76098212D01*
X69921057Y-76083112D01*
X69825803Y-75952003D01*
X69697996Y-75824196D01*
X69551791Y-75717974D01*
X69551790Y-75717973D01*
X69551788Y-75717972D01*
X69390756Y-75635922D01*
X69218871Y-75580073D01*
X69218869Y-75580072D01*
X69218867Y-75580072D01*
X69052659Y-75553747D01*
X69052658Y-75553747D01*
X69040365Y-75551800D01*
X68859635Y-75551800D01*
X68847342Y-75553747D01*
X68847340Y-75553747D01*
X68681132Y-75580072D01*
X68509241Y-75635923D01*
X68348208Y-75717974D01*
X68202003Y-75824196D01*
X68074196Y-75952003D01*
X67967974Y-76098208D01*
X67885923Y-76259241D01*
X67830072Y-76431132D01*
X67801800Y-76609635D01*
X62477695Y-76609635D01*
X62449440Y-76431249D01*
X62393613Y-76259433D01*
X62311602Y-76098477D01*
X62300439Y-76083112D01*
X61723700Y-76659851D01*
X61723700Y-76648168D01*
X61696870Y-76548038D01*
X61645038Y-76458263D01*
X61571737Y-76384962D01*
X61481962Y-76333130D01*
X61381832Y-76306300D01*
X61370147Y-76306300D01*
X61946886Y-75729559D01*
X61946886Y-75729558D01*
X61931529Y-75718401D01*
X61770566Y-75636386D01*
X61598750Y-75580559D01*
X61598752Y-75580559D01*
X61432658Y-75554252D01*
X61227341Y-75554252D01*
X61061248Y-75580559D01*
X60889433Y-75636386D01*
X60728476Y-75718397D01*
X60728472Y-75718400D01*
X60713112Y-75729558D01*
X60713112Y-75729559D01*
X61289854Y-76306300D01*
X61278168Y-76306300D01*
X61178038Y-76333130D01*
X61088263Y-76384962D01*
X61014962Y-76458263D01*
X60963130Y-76548038D01*
X60936300Y-76648168D01*
X60936300Y-76659853D01*
X60359559Y-76083112D01*
X60359558Y-76083112D01*
X60348400Y-76098472D01*
X60348397Y-76098476D01*
X60266386Y-76259433D01*
X60210559Y-76431249D01*
X60182300Y-76609668D01*
X38948914Y-76609668D01*
X38888896Y-35989258D01*
X38889081Y-35982307D01*
X38891074Y-35945879D01*
X38900659Y-35770639D01*
X50417500Y-35770639D01*
X50417500Y-35969361D01*
X50433043Y-36067498D01*
X50448587Y-36165637D01*
X50509993Y-36354629D01*
X50509994Y-36354632D01*
X50578284Y-36488656D01*
X50600213Y-36531694D01*
X50717019Y-36692464D01*
X50857536Y-36832981D01*
X51018306Y-36949787D01*
X51136832Y-37010179D01*
X51174780Y-37029515D01*
X51225576Y-37077490D01*
X51242371Y-37145311D01*
X51219833Y-37211446D01*
X51174780Y-37250485D01*
X51018305Y-37330213D01*
X50857533Y-37447021D01*
X50717021Y-37587533D01*
X50600213Y-37748305D01*
X50509994Y-37925367D01*
X50509993Y-37925370D01*
X50448587Y-38114362D01*
X50417500Y-38310639D01*
X50417500Y-38509360D01*
X50448587Y-38705637D01*
X50509993Y-38894629D01*
X50509994Y-38894632D01*
X50575229Y-39022661D01*
X50600213Y-39071694D01*
X50717019Y-39232464D01*
X50857536Y-39372981D01*
X51018306Y-39489787D01*
X51136832Y-39550179D01*
X51174780Y-39569515D01*
X51225576Y-39617490D01*
X51242371Y-39685311D01*
X51219833Y-39751446D01*
X51174780Y-39790485D01*
X51018305Y-39870213D01*
X50857533Y-39987021D01*
X50717021Y-40127533D01*
X50600213Y-40288305D01*
X50509994Y-40465367D01*
X50509993Y-40465370D01*
X50448587Y-40654362D01*
X50417500Y-40850639D01*
X50417500Y-41049360D01*
X50448587Y-41245637D01*
X50509993Y-41434629D01*
X50509994Y-41434632D01*
X50600213Y-41611694D01*
X50717019Y-41772464D01*
X50857536Y-41912981D01*
X51018306Y-42029787D01*
X51136832Y-42090179D01*
X51174780Y-42109515D01*
X51225576Y-42157490D01*
X51242371Y-42225311D01*
X51219833Y-42291446D01*
X51174780Y-42330485D01*
X51018305Y-42410213D01*
X50857533Y-42527021D01*
X50717021Y-42667533D01*
X50600213Y-42828305D01*
X50509994Y-43005367D01*
X50509993Y-43005370D01*
X50448587Y-43194362D01*
X50448587Y-43194364D01*
X50417500Y-43390639D01*
X50417500Y-43589361D01*
X50433043Y-43687498D01*
X50448587Y-43785637D01*
X50509993Y-43974629D01*
X50509994Y-43974632D01*
X50600213Y-44151694D01*
X50717019Y-44312464D01*
X50857536Y-44452981D01*
X51018306Y-44569787D01*
X51136832Y-44630179D01*
X51174780Y-44649515D01*
X51225576Y-44697490D01*
X51242371Y-44765311D01*
X51219833Y-44831446D01*
X51174780Y-44870485D01*
X51018305Y-44950213D01*
X50857533Y-45067021D01*
X50717021Y-45207533D01*
X50600213Y-45368305D01*
X50509994Y-45545367D01*
X50509993Y-45545370D01*
X50448587Y-45734362D01*
X50417500Y-45930639D01*
X50417500Y-46129360D01*
X50448587Y-46325637D01*
X50509993Y-46514629D01*
X50509994Y-46514632D01*
X50544325Y-46582009D01*
X50600213Y-46691694D01*
X50717019Y-46852464D01*
X50857536Y-46992981D01*
X51018306Y-47109787D01*
X51046350Y-47124076D01*
X51174780Y-47189515D01*
X51225576Y-47237490D01*
X51242371Y-47305311D01*
X51219833Y-47371446D01*
X51174780Y-47410485D01*
X51018305Y-47490213D01*
X50857533Y-47607021D01*
X50717021Y-47747533D01*
X50600213Y-47908305D01*
X50509994Y-48085367D01*
X50509993Y-48085370D01*
X50448587Y-48274362D01*
X50417500Y-48470639D01*
X50417500Y-48669360D01*
X50448587Y-48865637D01*
X50509993Y-49054629D01*
X50509994Y-49054632D01*
X50600213Y-49231694D01*
X50717019Y-49392464D01*
X50857536Y-49532981D01*
X51018306Y-49649787D01*
X51136832Y-49710179D01*
X51174780Y-49729515D01*
X51225576Y-49777490D01*
X51242371Y-49845311D01*
X51219833Y-49911446D01*
X51174780Y-49950485D01*
X51018305Y-50030213D01*
X50857533Y-50147021D01*
X50717021Y-50287533D01*
X50600213Y-50448305D01*
X50509994Y-50625367D01*
X50509993Y-50625370D01*
X50448587Y-50814362D01*
X50417500Y-51010639D01*
X50417500Y-51209360D01*
X50448587Y-51405637D01*
X50509993Y-51594629D01*
X50509994Y-51594632D01*
X50600213Y-51771694D01*
X50717019Y-51932464D01*
X50857536Y-52072981D01*
X51018306Y-52189787D01*
X51105149Y-52234035D01*
X51195367Y-52280005D01*
X51195370Y-52280006D01*
X51289866Y-52310709D01*
X51384364Y-52341413D01*
X51580639Y-52372500D01*
X51580640Y-52372500D01*
X51779360Y-52372500D01*
X51779361Y-52372500D01*
X51975636Y-52341413D01*
X52164632Y-52280005D01*
X52341694Y-52189787D01*
X52502464Y-52072981D01*
X52642981Y-51932464D01*
X52759787Y-51771694D01*
X52850005Y-51594632D01*
X52911413Y-51405636D01*
X52942500Y-51209361D01*
X52942500Y-51010639D01*
X52911413Y-50814364D01*
X52880709Y-50719866D01*
X52850006Y-50625370D01*
X52850005Y-50625367D01*
X52759786Y-50448305D01*
X52642981Y-50287536D01*
X52502464Y-50147019D01*
X52341694Y-50030213D01*
X52185218Y-49950484D01*
X52134423Y-49902510D01*
X52117628Y-49834689D01*
X52140165Y-49768554D01*
X52185218Y-49729515D01*
X52341694Y-49649787D01*
X52502464Y-49532981D01*
X52642981Y-49392464D01*
X52759787Y-49231694D01*
X52850005Y-49054632D01*
X52911413Y-48865636D01*
X52942500Y-48669361D01*
X52942500Y-48470639D01*
X52940303Y-48456770D01*
X52949257Y-48387480D01*
X52994252Y-48334027D01*
X53061003Y-48313386D01*
X53128317Y-48332110D01*
X53150456Y-48349691D01*
X53918754Y-49117990D01*
X54686508Y-49885744D01*
X54719993Y-49947067D01*
X54715009Y-50016759D01*
X54673137Y-50072692D01*
X54623019Y-50095042D01*
X54546508Y-50110261D01*
X54546498Y-50110264D01*
X54400827Y-50170602D01*
X54400814Y-50170609D01*
X54269711Y-50258210D01*
X54269707Y-50258213D01*
X54158213Y-50369707D01*
X54158210Y-50369711D01*
X54070609Y-50500814D01*
X54070602Y-50500827D01*
X54010264Y-50646498D01*
X54010261Y-50646510D01*
X53979500Y-50801153D01*
X53979500Y-50958846D01*
X54010261Y-51113489D01*
X54010264Y-51113501D01*
X54070602Y-51259172D01*
X54070609Y-51259185D01*
X54158210Y-51390288D01*
X54158213Y-51390292D01*
X54269707Y-51501786D01*
X54269711Y-51501789D01*
X54400814Y-51589390D01*
X54400827Y-51589397D01*
X54546498Y-51649735D01*
X54546503Y-51649737D01*
X54611147Y-51662595D01*
X54701849Y-51680638D01*
X54763760Y-51713023D01*
X54765339Y-51714574D01*
X56973181Y-53922416D01*
X57006666Y-53983739D01*
X57009500Y-54010097D01*
X57009500Y-62799902D01*
X56989815Y-62866941D01*
X56973181Y-62887583D01*
X56481681Y-63379083D01*
X56420358Y-63412568D01*
X56350666Y-63407584D01*
X56294733Y-63365712D01*
X56270316Y-63300248D01*
X56270000Y-63291402D01*
X56270000Y-63143753D01*
X56236757Y-62933872D01*
X56236757Y-62933869D01*
X56171095Y-62731782D01*
X56074624Y-62542449D01*
X56035270Y-62488282D01*
X56035269Y-62488282D01*
X55402962Y-63120590D01*
X55385925Y-63057007D01*
X55320099Y-62942993D01*
X55227007Y-62849901D01*
X55112993Y-62784075D01*
X55049409Y-62767037D01*
X55719627Y-62096818D01*
X55780950Y-62063333D01*
X55807307Y-62060499D01*
X55817872Y-62060499D01*
X55877483Y-62054091D01*
X56012331Y-62003796D01*
X56127546Y-61917546D01*
X56213796Y-61802331D01*
X56264091Y-61667483D01*
X56270500Y-61607873D01*
X56270499Y-59812128D01*
X56264091Y-59752517D01*
X56213796Y-59617669D01*
X56213795Y-59617668D01*
X56213793Y-59617664D01*
X56127547Y-59502455D01*
X56127544Y-59502452D01*
X56012335Y-59416206D01*
X56012328Y-59416202D01*
X55877482Y-59365908D01*
X55877483Y-59365908D01*
X55817883Y-59359501D01*
X55817881Y-59359500D01*
X55817873Y-59359500D01*
X55817864Y-59359500D01*
X54022129Y-59359500D01*
X54022123Y-59359501D01*
X53962516Y-59365908D01*
X53827671Y-59416202D01*
X53827664Y-59416206D01*
X53712455Y-59502452D01*
X53712452Y-59502455D01*
X53626206Y-59617664D01*
X53626202Y-59617671D01*
X53575908Y-59752517D01*
X53569501Y-59812116D01*
X53569501Y-59812123D01*
X53569500Y-59812135D01*
X53569500Y-61607870D01*
X53569501Y-61607876D01*
X53575908Y-61667483D01*
X53626202Y-61802328D01*
X53626206Y-61802335D01*
X53712452Y-61917544D01*
X53712455Y-61917547D01*
X53827664Y-62003793D01*
X53827671Y-62003797D01*
X53872618Y-62020561D01*
X53962517Y-62054091D01*
X54022127Y-62060500D01*
X54032685Y-62060499D01*
X54099723Y-62080179D01*
X54120372Y-62096818D01*
X54790591Y-62767037D01*
X54727007Y-62784075D01*
X54612993Y-62849901D01*
X54519901Y-62942993D01*
X54454075Y-63057007D01*
X54437037Y-63120591D01*
X53804728Y-62488282D01*
X53804727Y-62488282D01*
X53765380Y-62542439D01*
X53668904Y-62731782D01*
X53603242Y-62933869D01*
X53603242Y-62933872D01*
X53570000Y-63143753D01*
X53570000Y-63356246D01*
X53603242Y-63566127D01*
X53603242Y-63566130D01*
X53668904Y-63768217D01*
X53765375Y-63957550D01*
X53804728Y-64011716D01*
X54437037Y-63379408D01*
X54454075Y-63442993D01*
X54519901Y-63557007D01*
X54612993Y-63650099D01*
X54727007Y-63715925D01*
X54790590Y-63732962D01*
X54158282Y-64365269D01*
X54158282Y-64365270D01*
X54212452Y-64404626D01*
X54212451Y-64404626D01*
X54221495Y-64409234D01*
X54272292Y-64457208D01*
X54289087Y-64525029D01*
X54266550Y-64591164D01*
X54221499Y-64630202D01*
X54212182Y-64634949D01*
X54040213Y-64759890D01*
X53889890Y-64910213D01*
X53764951Y-65082179D01*
X53668444Y-65271585D01*
X53602753Y-65473760D01*
X53587580Y-65569559D01*
X53569500Y-65683713D01*
X53569500Y-65896287D01*
X53602754Y-66106243D01*
X53665145Y-66298263D01*
X53668444Y-66308414D01*
X53764951Y-66497820D01*
X53889890Y-66669786D01*
X54040213Y-66820109D01*
X54212182Y-66945050D01*
X54220946Y-66949516D01*
X54271742Y-66997491D01*
X54288536Y-67065312D01*
X54265998Y-67131447D01*
X54220946Y-67170484D01*
X54212182Y-67174949D01*
X54040213Y-67299890D01*
X53889890Y-67450213D01*
X53764951Y-67622179D01*
X53668444Y-67811585D01*
X53602753Y-68013760D01*
X53587580Y-68109559D01*
X53569500Y-68223713D01*
X53569500Y-68436287D01*
X53602754Y-68646243D01*
X53665145Y-68838263D01*
X53668444Y-68848414D01*
X53764951Y-69037820D01*
X53889890Y-69209786D01*
X54040213Y-69360109D01*
X54212182Y-69485050D01*
X54220946Y-69489516D01*
X54271742Y-69537491D01*
X54288536Y-69605312D01*
X54265998Y-69671447D01*
X54220946Y-69710484D01*
X54212182Y-69714949D01*
X54040213Y-69839890D01*
X53889890Y-69990213D01*
X53764951Y-70162179D01*
X53668444Y-70351585D01*
X53602753Y-70553760D01*
X53587580Y-70649559D01*
X53569500Y-70763713D01*
X53569500Y-70976287D01*
X53602754Y-71186243D01*
X53665145Y-71378263D01*
X53668444Y-71388414D01*
X53764951Y-71577820D01*
X53889890Y-71749786D01*
X54040213Y-71900109D01*
X54212182Y-72025050D01*
X54220946Y-72029516D01*
X54271742Y-72077491D01*
X54288536Y-72145312D01*
X54265998Y-72211447D01*
X54220946Y-72250484D01*
X54212182Y-72254949D01*
X54040213Y-72379890D01*
X53889890Y-72530213D01*
X53764951Y-72702179D01*
X53668444Y-72891585D01*
X53602753Y-73093760D01*
X53587580Y-73189559D01*
X53569500Y-73303713D01*
X53569500Y-73516287D01*
X53602754Y-73726243D01*
X53665145Y-73918263D01*
X53668444Y-73928414D01*
X53764951Y-74117820D01*
X53889890Y-74289786D01*
X54040213Y-74440109D01*
X54212179Y-74565048D01*
X54212181Y-74565049D01*
X54212184Y-74565051D01*
X54401588Y-74661557D01*
X54603757Y-74727246D01*
X54813713Y-74760500D01*
X54813714Y-74760500D01*
X55026286Y-74760500D01*
X55026287Y-74760500D01*
X55236243Y-74727246D01*
X55438412Y-74661557D01*
X55627816Y-74565051D01*
X55680368Y-74526870D01*
X55799786Y-74440109D01*
X55799788Y-74440106D01*
X55799792Y-74440104D01*
X55950104Y-74289792D01*
X55950106Y-74289788D01*
X55950109Y-74289786D01*
X56006745Y-74211832D01*
X56075051Y-74117816D01*
X56099600Y-74069635D01*
X60181800Y-74069635D01*
X60181800Y-74250364D01*
X60210053Y-74428750D01*
X60210073Y-74428871D01*
X60265922Y-74600756D01*
X60347840Y-74761529D01*
X60347974Y-74761791D01*
X60454196Y-74907996D01*
X60582003Y-75035803D01*
X60712260Y-75130438D01*
X60728212Y-75142028D01*
X60889244Y-75224078D01*
X61061129Y-75279927D01*
X61239635Y-75308200D01*
X61420365Y-75308200D01*
X61598871Y-75279927D01*
X61770756Y-75224078D01*
X61931788Y-75142028D01*
X62013879Y-75082385D01*
X62077996Y-75035803D01*
X62077998Y-75035800D01*
X62078002Y-75035798D01*
X62205798Y-74908002D01*
X62205800Y-74907998D01*
X62205803Y-74907996D01*
X62252385Y-74843879D01*
X62312028Y-74761788D01*
X62394078Y-74600756D01*
X62449927Y-74428871D01*
X62478200Y-74250365D01*
X62478200Y-74069668D01*
X67802300Y-74069668D01*
X67802300Y-74250331D01*
X67830559Y-74428750D01*
X67886386Y-74600566D01*
X67968401Y-74761529D01*
X67979558Y-74776886D01*
X67979559Y-74776886D01*
X68556300Y-74200145D01*
X68556300Y-74211832D01*
X68583130Y-74311962D01*
X68634962Y-74401737D01*
X68708263Y-74475038D01*
X68798038Y-74526870D01*
X68898168Y-74553700D01*
X68909853Y-74553700D01*
X68333112Y-75130438D01*
X68333112Y-75130439D01*
X68348477Y-75141602D01*
X68509433Y-75223613D01*
X68681249Y-75279440D01*
X68847340Y-75305747D01*
X69052659Y-75305747D01*
X69218750Y-75279440D01*
X69390566Y-75223613D01*
X69551528Y-75141599D01*
X69551532Y-75141597D01*
X69566886Y-75130440D01*
X69566887Y-75130439D01*
X68990148Y-74553700D01*
X69001832Y-74553700D01*
X69101962Y-74526870D01*
X69191737Y-74475038D01*
X69265038Y-74401737D01*
X69316870Y-74311962D01*
X69343700Y-74211832D01*
X69343700Y-74200147D01*
X69920440Y-74776887D01*
X69920440Y-74776886D01*
X69931597Y-74761532D01*
X69931599Y-74761528D01*
X70013613Y-74600566D01*
X70069440Y-74428750D01*
X70097700Y-74250331D01*
X70097700Y-74069668D01*
X70069440Y-73891249D01*
X70013613Y-73719433D01*
X69931602Y-73558477D01*
X69920439Y-73543112D01*
X69920438Y-73543112D01*
X69343700Y-74119851D01*
X69343700Y-74108168D01*
X69316870Y-74008038D01*
X69265038Y-73918263D01*
X69191737Y-73844962D01*
X69101962Y-73793130D01*
X69001832Y-73766300D01*
X68990147Y-73766300D01*
X69566886Y-73189559D01*
X69566886Y-73189558D01*
X69551529Y-73178401D01*
X69390566Y-73096386D01*
X69218750Y-73040559D01*
X69051064Y-73014000D01*
X68848935Y-73014000D01*
X68681249Y-73040559D01*
X68509433Y-73096386D01*
X68348476Y-73178397D01*
X68348472Y-73178400D01*
X68333112Y-73189558D01*
X68333112Y-73189559D01*
X68909854Y-73766300D01*
X68898168Y-73766300D01*
X68798038Y-73793130D01*
X68708263Y-73844962D01*
X68634962Y-73918263D01*
X68583130Y-74008038D01*
X68556300Y-74108168D01*
X68556300Y-74119853D01*
X67979559Y-73543112D01*
X67979558Y-73543112D01*
X67968400Y-73558472D01*
X67968397Y-73558476D01*
X67886386Y-73719433D01*
X67830559Y-73891249D01*
X67802300Y-74069668D01*
X62478200Y-74069668D01*
X62478200Y-74069635D01*
X62449927Y-73891129D01*
X62394078Y-73719244D01*
X62312028Y-73558212D01*
X62281568Y-73516287D01*
X62205803Y-73412003D01*
X62077996Y-73284196D01*
X61931791Y-73177974D01*
X61931790Y-73177973D01*
X61931788Y-73177972D01*
X61770756Y-73095922D01*
X61598871Y-73040073D01*
X61598869Y-73040072D01*
X61598867Y-73040072D01*
X61432659Y-73013747D01*
X61432658Y-73013747D01*
X61420365Y-73011800D01*
X61239635Y-73011800D01*
X61227342Y-73013747D01*
X61227340Y-73013747D01*
X61061132Y-73040072D01*
X60889241Y-73095923D01*
X60728208Y-73177974D01*
X60582003Y-73284196D01*
X60454196Y-73412003D01*
X60347974Y-73558208D01*
X60265923Y-73719241D01*
X60210072Y-73891132D01*
X60181800Y-74069635D01*
X56099600Y-74069635D01*
X56116582Y-74036305D01*
X56130767Y-74008468D01*
X56130768Y-74008466D01*
X56171554Y-73928417D01*
X56171557Y-73928412D01*
X56237246Y-73726243D01*
X56270500Y-73516287D01*
X56270500Y-73303713D01*
X56237246Y-73093757D01*
X56171557Y-72891588D01*
X56075051Y-72702184D01*
X56075049Y-72702181D01*
X56075048Y-72702179D01*
X55950109Y-72530213D01*
X55799786Y-72379890D01*
X55627820Y-72254951D01*
X55627115Y-72254591D01*
X55619054Y-72250485D01*
X55568259Y-72202512D01*
X55551463Y-72134692D01*
X55573999Y-72068556D01*
X55619054Y-72029515D01*
X55627816Y-72025051D01*
X55680368Y-71986870D01*
X55799786Y-71900109D01*
X55799788Y-71900106D01*
X55799792Y-71900104D01*
X55950104Y-71749792D01*
X55950106Y-71749788D01*
X55950109Y-71749786D01*
X56006745Y-71671832D01*
X56075051Y-71577816D01*
X56099584Y-71529668D01*
X60182300Y-71529668D01*
X60182300Y-71710331D01*
X60210559Y-71888750D01*
X60266386Y-72060566D01*
X60348401Y-72221529D01*
X60359558Y-72236886D01*
X60359559Y-72236886D01*
X60936300Y-71660145D01*
X60936300Y-71671832D01*
X60963130Y-71771962D01*
X61014962Y-71861737D01*
X61088263Y-71935038D01*
X61178038Y-71986870D01*
X61278168Y-72013700D01*
X61289853Y-72013700D01*
X60713112Y-72590438D01*
X60713112Y-72590439D01*
X60728477Y-72601602D01*
X60889433Y-72683613D01*
X61061249Y-72739440D01*
X61227340Y-72765747D01*
X61432659Y-72765747D01*
X61598750Y-72739440D01*
X61770566Y-72683613D01*
X61931528Y-72601599D01*
X61931532Y-72601597D01*
X61946886Y-72590440D01*
X61946887Y-72590439D01*
X61370148Y-72013700D01*
X61381832Y-72013700D01*
X61481962Y-71986870D01*
X61571737Y-71935038D01*
X61645038Y-71861737D01*
X61696870Y-71771962D01*
X61723700Y-71671832D01*
X61723700Y-71660147D01*
X62300439Y-72236887D01*
X62300440Y-72236886D01*
X62311597Y-72221532D01*
X62311599Y-72221528D01*
X62393613Y-72060566D01*
X62449440Y-71888750D01*
X62477700Y-71710331D01*
X62477700Y-71529668D01*
X67802300Y-71529668D01*
X67802300Y-71710331D01*
X67830559Y-71888750D01*
X67886386Y-72060566D01*
X67968401Y-72221529D01*
X67979558Y-72236886D01*
X67979559Y-72236886D01*
X68556300Y-71660145D01*
X68556300Y-71671832D01*
X68583130Y-71771962D01*
X68634962Y-71861737D01*
X68708263Y-71935038D01*
X68798038Y-71986870D01*
X68898168Y-72013700D01*
X68909853Y-72013700D01*
X68333112Y-72590438D01*
X68333112Y-72590439D01*
X68348477Y-72601602D01*
X68509433Y-72683613D01*
X68681249Y-72739440D01*
X68848935Y-72766000D01*
X69051064Y-72766000D01*
X69218750Y-72739440D01*
X69390566Y-72683613D01*
X69551528Y-72601599D01*
X69551532Y-72601597D01*
X69566886Y-72590440D01*
X69566887Y-72590439D01*
X68990148Y-72013700D01*
X69001832Y-72013700D01*
X69101962Y-71986870D01*
X69191737Y-71935038D01*
X69265038Y-71861737D01*
X69316870Y-71771962D01*
X69343700Y-71671832D01*
X69343700Y-71660147D01*
X69920440Y-72236887D01*
X69920440Y-72236886D01*
X69931597Y-72221532D01*
X69931599Y-72221528D01*
X70013613Y-72060566D01*
X70069440Y-71888750D01*
X70097700Y-71710331D01*
X70097700Y-71529674D01*
X70097261Y-71526904D01*
X70097261Y-71526899D01*
X70069440Y-71351249D01*
X70013613Y-71179433D01*
X69931602Y-71018477D01*
X69920439Y-71003112D01*
X69343700Y-71579851D01*
X69343700Y-71568168D01*
X69316870Y-71468038D01*
X69265038Y-71378263D01*
X69191737Y-71304962D01*
X69101962Y-71253130D01*
X69001832Y-71226300D01*
X68990147Y-71226300D01*
X69566886Y-70649559D01*
X69566886Y-70649558D01*
X69551529Y-70638401D01*
X69390566Y-70556386D01*
X69218750Y-70500559D01*
X69218752Y-70500559D01*
X69052658Y-70474252D01*
X68847341Y-70474252D01*
X68681248Y-70500559D01*
X68509433Y-70556386D01*
X68348476Y-70638397D01*
X68348472Y-70638400D01*
X68333112Y-70649558D01*
X68333112Y-70649559D01*
X68909854Y-71226300D01*
X68898168Y-71226300D01*
X68798038Y-71253130D01*
X68708263Y-71304962D01*
X68634962Y-71378263D01*
X68583130Y-71468038D01*
X68556300Y-71568168D01*
X68556300Y-71579853D01*
X67979559Y-71003112D01*
X67979558Y-71003112D01*
X67968400Y-71018472D01*
X67968397Y-71018476D01*
X67886386Y-71179433D01*
X67830559Y-71351249D01*
X67802300Y-71529668D01*
X62477700Y-71529668D01*
X62449440Y-71351249D01*
X62393613Y-71179433D01*
X62311602Y-71018477D01*
X62300439Y-71003112D01*
X61723700Y-71579851D01*
X61723700Y-71568168D01*
X61696870Y-71468038D01*
X61645038Y-71378263D01*
X61571737Y-71304962D01*
X61481962Y-71253130D01*
X61381832Y-71226300D01*
X61370147Y-71226300D01*
X61946886Y-70649559D01*
X61946886Y-70649558D01*
X61931529Y-70638401D01*
X61770566Y-70556386D01*
X61598750Y-70500559D01*
X61431064Y-70474000D01*
X61228935Y-70474000D01*
X61061249Y-70500559D01*
X60889433Y-70556386D01*
X60728476Y-70638397D01*
X60728472Y-70638400D01*
X60713112Y-70649558D01*
X60713112Y-70649559D01*
X61289854Y-71226300D01*
X61278168Y-71226300D01*
X61178038Y-71253130D01*
X61088263Y-71304962D01*
X61014962Y-71378263D01*
X60963130Y-71468038D01*
X60936300Y-71568168D01*
X60936300Y-71579853D01*
X60359559Y-71003112D01*
X60359558Y-71003112D01*
X60348400Y-71018472D01*
X60348397Y-71018476D01*
X60266386Y-71179433D01*
X60210559Y-71351249D01*
X60182300Y-71529668D01*
X56099584Y-71529668D01*
X56171557Y-71388412D01*
X56237246Y-71186243D01*
X56270500Y-70976287D01*
X56270500Y-70763713D01*
X56237246Y-70553757D01*
X56171557Y-70351588D01*
X56111597Y-70233909D01*
X76715000Y-70233909D01*
X76715000Y-70466090D01*
X76751318Y-70695393D01*
X76823065Y-70916205D01*
X76928465Y-71123064D01*
X76985238Y-71201207D01*
X77588958Y-70597487D01*
X77613978Y-70657890D01*
X77685112Y-70764351D01*
X77775649Y-70854888D01*
X77882110Y-70926022D01*
X77942510Y-70951041D01*
X77338791Y-71554759D01*
X77338791Y-71554760D01*
X77416935Y-71611534D01*
X77623794Y-71716934D01*
X77844606Y-71788681D01*
X78073910Y-71825000D01*
X78306090Y-71825000D01*
X78535393Y-71788681D01*
X78756205Y-71716934D01*
X78963071Y-71611530D01*
X79041207Y-71554762D01*
X79041208Y-71554760D01*
X78437488Y-70951041D01*
X78497890Y-70926022D01*
X78604351Y-70854888D01*
X78694888Y-70764351D01*
X78766022Y-70657890D01*
X78791041Y-70597489D01*
X79394760Y-71201208D01*
X79394762Y-71201207D01*
X79451530Y-71123071D01*
X79556934Y-70916205D01*
X79628681Y-70695393D01*
X79665000Y-70466090D01*
X79665000Y-70233909D01*
X79628681Y-70004606D01*
X79556934Y-69783794D01*
X79451534Y-69576935D01*
X79394760Y-69498791D01*
X79394759Y-69498791D01*
X78791041Y-70102510D01*
X78766022Y-70042110D01*
X78694888Y-69935649D01*
X78604351Y-69845112D01*
X78497890Y-69773978D01*
X78437487Y-69748957D01*
X79041207Y-69145238D01*
X78963064Y-69088465D01*
X78756205Y-68983065D01*
X78535393Y-68911318D01*
X78306090Y-68875000D01*
X78073910Y-68875000D01*
X77844606Y-68911318D01*
X77623794Y-68983065D01*
X77416925Y-69088470D01*
X77338791Y-69145237D01*
X77338791Y-69145238D01*
X77942511Y-69748958D01*
X77882110Y-69773978D01*
X77775649Y-69845112D01*
X77685112Y-69935649D01*
X77613978Y-70042110D01*
X77588958Y-70102511D01*
X76985238Y-69498791D01*
X76985237Y-69498791D01*
X76928470Y-69576925D01*
X76823065Y-69783794D01*
X76751318Y-70004606D01*
X76715000Y-70233909D01*
X56111597Y-70233909D01*
X56075051Y-70162184D01*
X56075049Y-70162181D01*
X56075048Y-70162179D01*
X55950109Y-69990213D01*
X55799786Y-69839890D01*
X55627820Y-69714951D01*
X55627115Y-69714591D01*
X55619054Y-69710485D01*
X55568259Y-69662512D01*
X55551463Y-69594692D01*
X55573999Y-69528556D01*
X55619054Y-69489515D01*
X55627816Y-69485051D01*
X55680368Y-69446870D01*
X55799786Y-69360109D01*
X55799788Y-69360106D01*
X55799792Y-69360104D01*
X55950104Y-69209792D01*
X55950106Y-69209788D01*
X55950109Y-69209786D01*
X56038249Y-69088470D01*
X56075051Y-69037816D01*
X56099584Y-68989668D01*
X60182300Y-68989668D01*
X60182300Y-69170331D01*
X60210559Y-69348750D01*
X60266386Y-69520566D01*
X60348401Y-69681529D01*
X60359558Y-69696886D01*
X60359559Y-69696886D01*
X60936300Y-69120145D01*
X60936300Y-69131832D01*
X60963130Y-69231962D01*
X61014962Y-69321737D01*
X61088263Y-69395038D01*
X61178038Y-69446870D01*
X61278168Y-69473700D01*
X61289853Y-69473700D01*
X60713112Y-70050438D01*
X60713112Y-70050439D01*
X60728477Y-70061602D01*
X60889433Y-70143613D01*
X61061249Y-70199440D01*
X61228935Y-70226000D01*
X61431064Y-70226000D01*
X61598750Y-70199440D01*
X61770566Y-70143613D01*
X61931528Y-70061599D01*
X61931532Y-70061597D01*
X61946886Y-70050440D01*
X61946887Y-70050439D01*
X61370148Y-69473700D01*
X61381832Y-69473700D01*
X61481962Y-69446870D01*
X61571737Y-69395038D01*
X61645038Y-69321737D01*
X61696870Y-69231962D01*
X61723700Y-69131832D01*
X61723700Y-69120147D01*
X62300439Y-69696887D01*
X62300440Y-69696886D01*
X62311597Y-69681532D01*
X62311599Y-69681528D01*
X62393613Y-69520566D01*
X62449440Y-69348750D01*
X62477700Y-69170331D01*
X62477700Y-68989668D01*
X62477695Y-68989635D01*
X67801800Y-68989635D01*
X67801800Y-69170364D01*
X67830053Y-69348750D01*
X67830073Y-69348871D01*
X67885922Y-69520756D01*
X67967840Y-69681529D01*
X67967974Y-69681791D01*
X68074196Y-69827996D01*
X68202003Y-69955803D01*
X68320797Y-70042110D01*
X68348212Y-70062028D01*
X68509244Y-70144078D01*
X68681129Y-70199927D01*
X68859635Y-70228200D01*
X69040365Y-70228200D01*
X69218871Y-70199927D01*
X69390756Y-70144078D01*
X69551788Y-70062028D01*
X69633879Y-70002385D01*
X69697996Y-69955803D01*
X69697998Y-69955800D01*
X69698002Y-69955798D01*
X69825798Y-69828002D01*
X69825800Y-69827998D01*
X69825803Y-69827996D01*
X69900648Y-69724979D01*
X69932028Y-69681788D01*
X70014078Y-69520756D01*
X70069927Y-69348871D01*
X70098200Y-69170365D01*
X70098200Y-68989635D01*
X70069927Y-68811129D01*
X70014078Y-68639244D01*
X69932028Y-68478212D01*
X69901568Y-68436287D01*
X69825803Y-68332003D01*
X69697996Y-68204196D01*
X69551791Y-68097974D01*
X69551790Y-68097973D01*
X69551788Y-68097972D01*
X69390756Y-68015922D01*
X69218871Y-67960073D01*
X69218869Y-67960072D01*
X69218867Y-67960072D01*
X69052659Y-67933747D01*
X69052658Y-67933747D01*
X69040365Y-67931800D01*
X68859635Y-67931800D01*
X68847342Y-67933747D01*
X68847340Y-67933747D01*
X68681132Y-67960072D01*
X68509241Y-68015923D01*
X68348208Y-68097974D01*
X68202003Y-68204196D01*
X68074196Y-68332003D01*
X67967974Y-68478208D01*
X67885923Y-68639241D01*
X67830072Y-68811132D01*
X67801800Y-68989635D01*
X62477695Y-68989635D01*
X62449440Y-68811249D01*
X62393613Y-68639433D01*
X62311602Y-68478477D01*
X62300439Y-68463112D01*
X61723700Y-69039851D01*
X61723700Y-69028168D01*
X61696870Y-68928038D01*
X61645038Y-68838263D01*
X61571737Y-68764962D01*
X61481962Y-68713130D01*
X61381832Y-68686300D01*
X61370147Y-68686300D01*
X61946886Y-68109559D01*
X61946886Y-68109558D01*
X61931529Y-68098401D01*
X61770566Y-68016386D01*
X61598750Y-67960559D01*
X61598752Y-67960559D01*
X61432658Y-67934252D01*
X61227341Y-67934252D01*
X61061248Y-67960559D01*
X60889433Y-68016386D01*
X60728476Y-68098397D01*
X60728472Y-68098400D01*
X60713112Y-68109558D01*
X60713112Y-68109559D01*
X61289854Y-68686300D01*
X61278168Y-68686300D01*
X61178038Y-68713130D01*
X61088263Y-68764962D01*
X61014962Y-68838263D01*
X60963130Y-68928038D01*
X60936300Y-69028168D01*
X60936300Y-69039853D01*
X60359559Y-68463112D01*
X60359558Y-68463112D01*
X60348400Y-68478472D01*
X60348397Y-68478476D01*
X60266386Y-68639433D01*
X60210559Y-68811249D01*
X60182300Y-68989668D01*
X56099584Y-68989668D01*
X56171557Y-68848412D01*
X56237246Y-68646243D01*
X56270500Y-68436287D01*
X56270500Y-68223713D01*
X56237246Y-68013757D01*
X56171557Y-67811588D01*
X56075051Y-67622184D01*
X56075049Y-67622181D01*
X56075048Y-67622179D01*
X55950109Y-67450213D01*
X55799786Y-67299890D01*
X55627820Y-67174951D01*
X55627115Y-67174591D01*
X55619054Y-67170485D01*
X55568259Y-67122512D01*
X55551463Y-67054692D01*
X55573999Y-66988556D01*
X55619054Y-66949515D01*
X55627816Y-66945051D01*
X55680368Y-66906870D01*
X55799786Y-66820109D01*
X55799788Y-66820106D01*
X55799792Y-66820104D01*
X55950104Y-66669792D01*
X55950106Y-66669788D01*
X55950109Y-66669786D01*
X56075048Y-66497820D01*
X56075047Y-66497820D01*
X56075051Y-66497816D01*
X56099600Y-66449635D01*
X60181800Y-66449635D01*
X60181800Y-66630364D01*
X60210053Y-66808750D01*
X60210073Y-66808871D01*
X60265922Y-66980756D01*
X60347840Y-67141529D01*
X60347974Y-67141791D01*
X60454196Y-67287996D01*
X60582003Y-67415803D01*
X60712260Y-67510438D01*
X60728212Y-67522028D01*
X60889244Y-67604078D01*
X61061129Y-67659927D01*
X61239635Y-67688200D01*
X61420365Y-67688200D01*
X61598871Y-67659927D01*
X61770756Y-67604078D01*
X61931788Y-67522028D01*
X62030634Y-67450213D01*
X62077996Y-67415803D01*
X62077998Y-67415800D01*
X62078002Y-67415798D01*
X62205798Y-67288002D01*
X62205800Y-67287998D01*
X62205803Y-67287996D01*
X62252385Y-67223879D01*
X62312028Y-67141788D01*
X62394078Y-66980756D01*
X62449927Y-66808871D01*
X62478200Y-66630365D01*
X62478200Y-66449635D01*
X62449927Y-66271129D01*
X62394078Y-66099244D01*
X62312028Y-65938212D01*
X62281568Y-65896287D01*
X62205803Y-65792003D01*
X62077996Y-65664196D01*
X61931791Y-65557974D01*
X61931790Y-65557973D01*
X61931788Y-65557972D01*
X61770756Y-65475922D01*
X61598871Y-65420073D01*
X61598869Y-65420072D01*
X61598867Y-65420072D01*
X61485420Y-65402103D01*
X61420365Y-65391800D01*
X61239635Y-65391800D01*
X61225745Y-65394000D01*
X61061132Y-65420072D01*
X60889241Y-65475923D01*
X60728208Y-65557974D01*
X60582003Y-65664196D01*
X60454196Y-65792003D01*
X60347974Y-65938208D01*
X60265923Y-66099241D01*
X60210072Y-66271132D01*
X60181800Y-66449635D01*
X56099600Y-66449635D01*
X56171557Y-66308412D01*
X56237246Y-66106243D01*
X56270500Y-65896287D01*
X56270500Y-65683713D01*
X56237246Y-65473757D01*
X56223506Y-65431473D01*
X56221512Y-65361635D01*
X56253755Y-65305478D01*
X57968506Y-63590728D01*
X57968511Y-63590724D01*
X57978714Y-63580520D01*
X57978716Y-63580520D01*
X58090520Y-63468716D01*
X58169577Y-63331784D01*
X58210500Y-63179057D01*
X58210500Y-53709097D01*
X58230185Y-53642058D01*
X58282989Y-53596303D01*
X58352147Y-53586359D01*
X58415703Y-53615384D01*
X58422181Y-53621416D01*
X59745481Y-54944716D01*
X59778966Y-55006039D01*
X59781800Y-55032397D01*
X59781800Y-62965630D01*
X59781799Y-62965648D01*
X59781799Y-63131354D01*
X59781798Y-63131354D01*
X59793956Y-63176727D01*
X59814125Y-63251998D01*
X59822724Y-63284087D01*
X59835045Y-63305427D01*
X59835046Y-63305429D01*
X59901777Y-63421012D01*
X59901781Y-63421017D01*
X60020649Y-63539885D01*
X60020655Y-63539890D01*
X60165645Y-63684880D01*
X60199130Y-63746203D01*
X60200438Y-63791958D01*
X60181800Y-63909635D01*
X60181800Y-63909640D01*
X60181800Y-64090364D01*
X60210053Y-64268750D01*
X60210073Y-64268871D01*
X60265922Y-64440756D01*
X60347840Y-64601529D01*
X60347974Y-64601791D01*
X60454196Y-64747996D01*
X60582003Y-64875803D01*
X60712260Y-64970438D01*
X60728212Y-64982028D01*
X60889244Y-65064078D01*
X61061129Y-65119927D01*
X61239635Y-65148200D01*
X61420365Y-65148200D01*
X61598871Y-65119927D01*
X61770756Y-65064078D01*
X61931788Y-64982028D01*
X62030634Y-64910213D01*
X62077996Y-64875803D01*
X62077998Y-64875800D01*
X62078002Y-64875798D01*
X62205798Y-64748002D01*
X62205800Y-64747998D01*
X62205803Y-64747996D01*
X62256146Y-64678703D01*
X62312028Y-64601788D01*
X62394078Y-64440756D01*
X62449927Y-64268871D01*
X62478200Y-64090365D01*
X62478200Y-63909668D01*
X67802300Y-63909668D01*
X67802300Y-64090331D01*
X67830559Y-64268750D01*
X67886386Y-64440566D01*
X67968401Y-64601529D01*
X67979558Y-64616886D01*
X67979559Y-64616886D01*
X68556300Y-64040145D01*
X68556300Y-64051832D01*
X68583130Y-64151962D01*
X68634962Y-64241737D01*
X68708263Y-64315038D01*
X68798038Y-64366870D01*
X68898168Y-64393700D01*
X68909853Y-64393700D01*
X68333112Y-64970438D01*
X68333112Y-64970439D01*
X68348477Y-64981602D01*
X68509433Y-65063613D01*
X68681249Y-65119440D01*
X68848935Y-65146000D01*
X69051064Y-65146000D01*
X69218750Y-65119440D01*
X69390566Y-65063613D01*
X69551528Y-64981599D01*
X69551532Y-64981597D01*
X69566886Y-64970440D01*
X69566887Y-64970439D01*
X68990148Y-64393700D01*
X69001832Y-64393700D01*
X69101962Y-64366870D01*
X69191737Y-64315038D01*
X69265038Y-64241737D01*
X69316870Y-64151962D01*
X69343700Y-64051832D01*
X69343700Y-64040147D01*
X69920439Y-64616887D01*
X69940787Y-64615286D01*
X70009164Y-64629651D01*
X70058920Y-64678703D01*
X70074258Y-64746869D01*
X70060999Y-64795199D01*
X69977454Y-64959163D01*
X69919059Y-65138881D01*
X69889500Y-65325513D01*
X69889500Y-65514486D01*
X69919059Y-65701118D01*
X69950358Y-65797442D01*
X69952353Y-65867283D01*
X69920108Y-65923442D01*
X69343700Y-66499851D01*
X69343700Y-66488168D01*
X69316870Y-66388038D01*
X69265038Y-66298263D01*
X69191737Y-66224962D01*
X69101962Y-66173130D01*
X69001832Y-66146300D01*
X68990147Y-66146300D01*
X69566886Y-65569559D01*
X69566886Y-65569558D01*
X69551529Y-65558401D01*
X69390566Y-65476386D01*
X69218750Y-65420559D01*
X69051064Y-65394000D01*
X68848935Y-65394000D01*
X68681249Y-65420559D01*
X68509433Y-65476386D01*
X68348476Y-65558397D01*
X68348472Y-65558400D01*
X68333112Y-65569558D01*
X68333112Y-65569559D01*
X68909854Y-66146300D01*
X68898168Y-66146300D01*
X68798038Y-66173130D01*
X68708263Y-66224962D01*
X68634962Y-66298263D01*
X68583130Y-66388038D01*
X68556300Y-66488168D01*
X68556300Y-66499853D01*
X67979559Y-65923112D01*
X67979558Y-65923112D01*
X67968400Y-65938472D01*
X67968397Y-65938476D01*
X67886386Y-66099433D01*
X67830559Y-66271249D01*
X67802300Y-66449668D01*
X67802300Y-66630331D01*
X67830559Y-66808750D01*
X67886386Y-66980566D01*
X67968401Y-67141529D01*
X67979558Y-67156886D01*
X67979559Y-67156886D01*
X68556300Y-66580145D01*
X68556300Y-66591832D01*
X68583130Y-66691962D01*
X68634962Y-66781737D01*
X68708263Y-66855038D01*
X68798038Y-66906870D01*
X68898168Y-66933700D01*
X68909853Y-66933700D01*
X68333112Y-67510438D01*
X68333112Y-67510439D01*
X68348477Y-67521602D01*
X68509433Y-67603613D01*
X68681249Y-67659440D01*
X68847340Y-67685747D01*
X69052659Y-67685747D01*
X69218750Y-67659440D01*
X69390566Y-67603613D01*
X69551528Y-67521599D01*
X69551532Y-67521597D01*
X69566886Y-67510440D01*
X69566887Y-67510439D01*
X68990148Y-66933700D01*
X69001832Y-66933700D01*
X69101962Y-66906870D01*
X69191737Y-66855038D01*
X69265038Y-66781737D01*
X69316870Y-66691962D01*
X69343700Y-66591832D01*
X69343700Y-66580147D01*
X69920439Y-67156887D01*
X69920440Y-67156886D01*
X69931597Y-67141532D01*
X69931599Y-67141528D01*
X70013613Y-66980566D01*
X70069440Y-66808750D01*
X70097700Y-66630331D01*
X70097700Y-66449669D01*
X70096388Y-66441389D01*
X70105339Y-66372095D01*
X70150333Y-66318641D01*
X70217083Y-66297998D01*
X70284398Y-66316720D01*
X70306541Y-66334304D01*
X70307927Y-66335690D01*
X70460801Y-66446760D01*
X70517101Y-66475446D01*
X70629163Y-66532545D01*
X70629165Y-66532545D01*
X70629168Y-66532547D01*
X70725497Y-66563846D01*
X70808881Y-66590940D01*
X70995514Y-66620500D01*
X70995519Y-66620500D01*
X71184486Y-66620500D01*
X71371118Y-66590940D01*
X71550832Y-66532547D01*
X71719199Y-66446760D01*
X71872073Y-66335690D01*
X71952319Y-66255444D01*
X72013642Y-66221959D01*
X72083334Y-66226943D01*
X72127681Y-66255444D01*
X72207927Y-66335690D01*
X72360801Y-66446760D01*
X72417101Y-66475446D01*
X72529163Y-66532545D01*
X72529165Y-66532545D01*
X72529168Y-66532547D01*
X72625497Y-66563846D01*
X72708881Y-66590940D01*
X72895514Y-66620500D01*
X72895519Y-66620500D01*
X73084486Y-66620500D01*
X73271118Y-66590940D01*
X73450832Y-66532547D01*
X73619199Y-66446760D01*
X73772073Y-66335690D01*
X73905690Y-66202073D01*
X74016760Y-66049199D01*
X74102547Y-65880832D01*
X74160940Y-65701118D01*
X74183544Y-65558401D01*
X74190500Y-65514486D01*
X74190500Y-65325512D01*
X74178287Y-65248401D01*
X74175985Y-65233870D01*
X76714500Y-65233870D01*
X76714500Y-65466129D01*
X76750831Y-65695514D01*
X76822601Y-65916400D01*
X76915764Y-66099241D01*
X76928039Y-66123331D01*
X77064551Y-66311224D01*
X77228776Y-66475449D01*
X77416669Y-66611961D01*
X77452787Y-66630364D01*
X77623599Y-66717398D01*
X77623601Y-66717398D01*
X77623604Y-66717400D01*
X77844486Y-66789169D01*
X77962668Y-66807886D01*
X78073871Y-66825500D01*
X78073876Y-66825500D01*
X78306129Y-66825500D01*
X78411143Y-66808867D01*
X78535514Y-66789169D01*
X78756396Y-66717400D01*
X78963331Y-66611961D01*
X79151224Y-66475449D01*
X79315449Y-66311224D01*
X79451961Y-66123331D01*
X79557400Y-65916396D01*
X79629169Y-65695514D01*
X79650953Y-65557972D01*
X79665500Y-65466129D01*
X79665500Y-65233870D01*
X79638607Y-65064076D01*
X79629169Y-65004486D01*
X79557400Y-64783604D01*
X79557398Y-64783601D01*
X79557398Y-64783599D01*
X79487027Y-64645490D01*
X79451961Y-64576669D01*
X79315449Y-64388776D01*
X79151224Y-64224551D01*
X78963331Y-64088039D01*
X78756400Y-63982601D01*
X78535514Y-63910831D01*
X78306129Y-63874500D01*
X78306124Y-63874500D01*
X78073876Y-63874500D01*
X78073871Y-63874500D01*
X77844485Y-63910831D01*
X77623599Y-63982601D01*
X77416668Y-64088039D01*
X77228773Y-64224553D01*
X77064553Y-64388773D01*
X76928039Y-64576668D01*
X76822601Y-64783599D01*
X76750831Y-65004485D01*
X76714500Y-65233870D01*
X74175985Y-65233870D01*
X74160940Y-65138881D01*
X74117271Y-65004485D01*
X74102547Y-64959168D01*
X74102545Y-64959165D01*
X74102545Y-64959163D01*
X74057290Y-64870347D01*
X74016760Y-64790801D01*
X73905690Y-64637927D01*
X73772073Y-64504310D01*
X73619199Y-64393240D01*
X73564303Y-64365269D01*
X73450836Y-64307454D01*
X73271118Y-64249059D01*
X73084486Y-64219500D01*
X73084481Y-64219500D01*
X72895519Y-64219500D01*
X72895514Y-64219500D01*
X72708881Y-64249059D01*
X72529163Y-64307454D01*
X72360800Y-64393240D01*
X72295660Y-64440568D01*
X72207927Y-64504310D01*
X72207925Y-64504312D01*
X72207924Y-64504312D01*
X72127681Y-64584556D01*
X72066358Y-64618041D01*
X71996666Y-64613057D01*
X71952319Y-64584556D01*
X71872075Y-64504312D01*
X71872073Y-64504310D01*
X71719199Y-64393240D01*
X71664303Y-64365269D01*
X71550836Y-64307454D01*
X71371118Y-64249059D01*
X71184486Y-64219500D01*
X71184481Y-64219500D01*
X70995519Y-64219500D01*
X70995514Y-64219500D01*
X70808881Y-64249059D01*
X70629163Y-64307454D01*
X70460800Y-64393240D01*
X70307928Y-64504309D01*
X70195247Y-64616990D01*
X70133924Y-64650474D01*
X70064232Y-64645490D01*
X70008299Y-64603618D01*
X69983882Y-64538154D01*
X69997082Y-64473012D01*
X70013613Y-64440568D01*
X70069440Y-64268750D01*
X70097700Y-64090331D01*
X70097700Y-63909668D01*
X70069440Y-63731249D01*
X70013613Y-63559433D01*
X69931602Y-63398477D01*
X69920439Y-63383112D01*
X69343700Y-63959851D01*
X69343700Y-63948168D01*
X69316870Y-63848038D01*
X69265038Y-63758263D01*
X69191737Y-63684962D01*
X69101962Y-63633130D01*
X69001832Y-63606300D01*
X68990147Y-63606300D01*
X69566886Y-63029559D01*
X69566886Y-63029558D01*
X69551529Y-63018401D01*
X69390566Y-62936386D01*
X69218750Y-62880559D01*
X69218752Y-62880559D01*
X69052658Y-62854252D01*
X68847341Y-62854252D01*
X68681248Y-62880559D01*
X68509433Y-62936386D01*
X68348476Y-63018397D01*
X68348472Y-63018400D01*
X68333112Y-63029558D01*
X68333112Y-63029559D01*
X68909854Y-63606300D01*
X68898168Y-63606300D01*
X68798038Y-63633130D01*
X68708263Y-63684962D01*
X68634962Y-63758263D01*
X68583130Y-63848038D01*
X68556300Y-63948168D01*
X68556300Y-63959853D01*
X67979559Y-63383112D01*
X67979558Y-63383112D01*
X67968400Y-63398472D01*
X67968397Y-63398476D01*
X67886386Y-63559433D01*
X67830559Y-63731249D01*
X67802300Y-63909668D01*
X62478200Y-63909668D01*
X62478200Y-63909635D01*
X62449927Y-63731129D01*
X62394078Y-63559244D01*
X62312028Y-63398212D01*
X62263765Y-63331783D01*
X62205803Y-63252003D01*
X62077996Y-63124196D01*
X61931791Y-63017974D01*
X61931790Y-63017973D01*
X61931788Y-63017972D01*
X61770756Y-62935922D01*
X61598871Y-62880073D01*
X61598869Y-62880072D01*
X61598867Y-62880072D01*
X61474232Y-62860331D01*
X61420365Y-62851800D01*
X61239635Y-62851800D01*
X61126197Y-62869766D01*
X61056904Y-62860811D01*
X61003452Y-62815815D01*
X60982813Y-62749063D01*
X60982800Y-62747293D01*
X60982800Y-62731700D01*
X61002485Y-62664661D01*
X61055289Y-62618906D01*
X61072548Y-62615151D01*
X61080000Y-62607700D01*
X61080000Y-61766775D01*
X61088263Y-61775038D01*
X61178038Y-61826870D01*
X61278168Y-61853700D01*
X61381832Y-61853700D01*
X61481962Y-61826870D01*
X61571737Y-61775038D01*
X61580000Y-61766775D01*
X61580000Y-62607700D01*
X62025528Y-62607700D01*
X62025544Y-62607699D01*
X62085072Y-62601298D01*
X62085079Y-62601296D01*
X62219786Y-62551054D01*
X62219793Y-62551050D01*
X62334887Y-62464890D01*
X62334890Y-62464887D01*
X62421050Y-62349793D01*
X62421054Y-62349786D01*
X62471296Y-62215079D01*
X62471298Y-62215072D01*
X62477699Y-62155544D01*
X62477700Y-62155527D01*
X62477700Y-61710000D01*
X61636775Y-61710000D01*
X61645038Y-61701737D01*
X61696870Y-61611962D01*
X61723700Y-61511832D01*
X61723700Y-61408168D01*
X61713375Y-61369635D01*
X67801800Y-61369635D01*
X67801800Y-61550364D01*
X67828255Y-61717398D01*
X67830073Y-61728871D01*
X67885922Y-61900756D01*
X67967315Y-62060499D01*
X67967974Y-62061791D01*
X68074196Y-62207996D01*
X68202003Y-62335803D01*
X68338817Y-62435202D01*
X68348212Y-62442028D01*
X68509244Y-62524078D01*
X68681129Y-62579927D01*
X68859635Y-62608200D01*
X69040365Y-62608200D01*
X69218871Y-62579927D01*
X69390756Y-62524078D01*
X69551788Y-62442028D01*
X69633879Y-62382385D01*
X69697996Y-62335803D01*
X69697998Y-62335800D01*
X69698002Y-62335798D01*
X69825798Y-62208002D01*
X69825800Y-62207998D01*
X69825803Y-62207996D01*
X69930905Y-62063333D01*
X69932028Y-62061788D01*
X70014078Y-61900756D01*
X70069927Y-61728871D01*
X70098200Y-61550365D01*
X70098200Y-61369635D01*
X70069927Y-61191129D01*
X70014078Y-61019244D01*
X69932028Y-60858212D01*
X69925202Y-60848817D01*
X69825803Y-60712003D01*
X69697996Y-60584196D01*
X69551791Y-60477974D01*
X69551790Y-60477973D01*
X69551788Y-60477972D01*
X69390756Y-60395922D01*
X69218871Y-60340073D01*
X69218869Y-60340072D01*
X69218867Y-60340072D01*
X69083948Y-60318703D01*
X69040365Y-60311800D01*
X68859635Y-60311800D01*
X68818254Y-60318354D01*
X68681132Y-60340072D01*
X68509241Y-60395923D01*
X68348208Y-60477974D01*
X68202003Y-60584196D01*
X68074196Y-60712003D01*
X67967974Y-60858208D01*
X67885923Y-61019241D01*
X67830072Y-61191132D01*
X67801800Y-61369635D01*
X61713375Y-61369635D01*
X61696870Y-61308038D01*
X61645038Y-61218263D01*
X61636775Y-61210000D01*
X62477700Y-61210000D01*
X62477700Y-60764472D01*
X62477699Y-60764455D01*
X62471298Y-60704927D01*
X62471296Y-60704920D01*
X62421054Y-60570213D01*
X62421050Y-60570206D01*
X62334890Y-60455112D01*
X62334887Y-60455109D01*
X62219793Y-60368949D01*
X62219786Y-60368945D01*
X62085079Y-60318703D01*
X62085072Y-60318701D01*
X62025544Y-60312300D01*
X61580000Y-60312300D01*
X61580000Y-61153225D01*
X61571737Y-61144962D01*
X61481962Y-61093130D01*
X61381832Y-61066300D01*
X61278168Y-61066300D01*
X61178038Y-61093130D01*
X61088263Y-61144962D01*
X61080000Y-61153225D01*
X61080000Y-60323071D01*
X61032571Y-60287628D01*
X61014127Y-60263032D01*
X60994006Y-60239811D01*
X60992899Y-60234723D01*
X60992259Y-60233870D01*
X76714500Y-60233870D01*
X76714500Y-60466129D01*
X76750831Y-60695514D01*
X76822601Y-60916400D01*
X76898980Y-61066300D01*
X76928039Y-61123331D01*
X77064551Y-61311224D01*
X77228776Y-61475449D01*
X77416669Y-61611961D01*
X77514436Y-61661776D01*
X77623599Y-61717398D01*
X77623601Y-61717398D01*
X77623604Y-61717400D01*
X77844486Y-61789169D01*
X77962668Y-61807886D01*
X78073871Y-61825500D01*
X78073876Y-61825500D01*
X78306129Y-61825500D01*
X78407502Y-61809443D01*
X78535514Y-61789169D01*
X78756396Y-61717400D01*
X78963331Y-61611961D01*
X79151224Y-61475449D01*
X79315449Y-61311224D01*
X79451961Y-61123331D01*
X79557400Y-60916396D01*
X79629169Y-60695514D01*
X79649443Y-60567502D01*
X79665500Y-60466129D01*
X79665500Y-60233870D01*
X79646232Y-60112222D01*
X79629169Y-60004486D01*
X79557400Y-59783604D01*
X79557398Y-59783601D01*
X79557398Y-59783599D01*
X79501776Y-59674436D01*
X79451961Y-59576669D01*
X79315449Y-59388776D01*
X79151224Y-59224551D01*
X78963331Y-59088039D01*
X78756400Y-58982601D01*
X78535514Y-58910831D01*
X78306129Y-58874500D01*
X78306124Y-58874500D01*
X78073876Y-58874500D01*
X78073871Y-58874500D01*
X77844485Y-58910831D01*
X77623599Y-58982601D01*
X77416668Y-59088039D01*
X77228773Y-59224553D01*
X77064553Y-59388773D01*
X76928039Y-59576668D01*
X76822601Y-59783599D01*
X76750831Y-60004485D01*
X76714500Y-60233870D01*
X60992259Y-60233870D01*
X60990654Y-60231729D01*
X60989859Y-60220751D01*
X60982800Y-60188300D01*
X60982800Y-57376294D01*
X61002485Y-57309255D01*
X61055289Y-57263500D01*
X61124447Y-57253556D01*
X61188003Y-57282581D01*
X61224731Y-57337976D01*
X61241581Y-57389835D01*
X61330905Y-57565145D01*
X61356319Y-57600125D01*
X61356320Y-57600125D01*
X62025000Y-56931445D01*
X62025000Y-56959370D01*
X62050556Y-57054745D01*
X62099925Y-57140255D01*
X62169745Y-57210075D01*
X62255255Y-57259444D01*
X62350630Y-57285000D01*
X62378553Y-57285000D01*
X61709873Y-57953677D01*
X61709873Y-57953678D01*
X61744858Y-57979096D01*
X61920164Y-58068418D01*
X62107294Y-58129221D01*
X62301618Y-58160000D01*
X62498382Y-58160000D01*
X62692705Y-58129221D01*
X62879835Y-58068418D01*
X63055143Y-57979095D01*
X63090125Y-57953678D01*
X63090126Y-57953678D01*
X62421448Y-57285000D01*
X62449370Y-57285000D01*
X62544745Y-57259444D01*
X62630255Y-57210075D01*
X62700075Y-57140255D01*
X62749444Y-57054745D01*
X62775000Y-56959370D01*
X62775000Y-56931448D01*
X63443678Y-57600126D01*
X63443678Y-57600125D01*
X63469095Y-57565143D01*
X63558418Y-57389835D01*
X63619221Y-57202705D01*
X63650000Y-57008382D01*
X63650000Y-56811617D01*
X63619221Y-56617294D01*
X63558418Y-56430164D01*
X63469096Y-56254858D01*
X63443678Y-56219873D01*
X63443677Y-56219873D01*
X62775000Y-56888551D01*
X62775000Y-56860630D01*
X62749444Y-56765255D01*
X62700075Y-56679745D01*
X62630255Y-56609925D01*
X62544745Y-56560556D01*
X62449370Y-56535000D01*
X62421447Y-56535000D01*
X63090125Y-55866320D01*
X63090125Y-55866319D01*
X63055145Y-55840905D01*
X62879835Y-55751581D01*
X62692705Y-55690778D01*
X62498382Y-55660000D01*
X62301618Y-55660000D01*
X62107294Y-55690778D01*
X61920161Y-55751582D01*
X61744863Y-55840899D01*
X61744859Y-55840902D01*
X61709873Y-55866320D01*
X61709872Y-55866320D01*
X62378554Y-56535000D01*
X62350630Y-56535000D01*
X62255255Y-56560556D01*
X62169745Y-56609925D01*
X62099925Y-56679745D01*
X62050556Y-56765255D01*
X62025000Y-56860630D01*
X62025000Y-56888552D01*
X61356320Y-56219872D01*
X61356320Y-56219873D01*
X61330902Y-56254859D01*
X61330899Y-56254863D01*
X61241582Y-56430159D01*
X61224731Y-56482024D01*
X61185293Y-56539699D01*
X61120934Y-56566897D01*
X61052088Y-56554982D01*
X61000612Y-56507738D01*
X60982800Y-56443705D01*
X60982800Y-55447054D01*
X65257498Y-55447054D01*
X65298423Y-55599785D01*
X65327358Y-55649900D01*
X65327359Y-55649904D01*
X65327360Y-55649904D01*
X65350676Y-55690290D01*
X65377479Y-55736714D01*
X65377481Y-55736717D01*
X65496349Y-55855585D01*
X65496355Y-55855590D01*
X66146231Y-56505466D01*
X66179716Y-56566789D01*
X66181023Y-56612544D01*
X66149500Y-56811576D01*
X66149500Y-57008422D01*
X66180290Y-57202826D01*
X66241117Y-57390029D01*
X66330343Y-57565143D01*
X66330476Y-57565405D01*
X66446172Y-57724646D01*
X66585354Y-57863828D01*
X66744595Y-57979524D01*
X66827455Y-58021743D01*
X66919970Y-58068882D01*
X66919972Y-58068882D01*
X66919975Y-58068884D01*
X67020317Y-58101487D01*
X67107173Y-58129709D01*
X67301578Y-58160500D01*
X67301583Y-58160500D01*
X67498422Y-58160500D01*
X67692826Y-58129709D01*
X67694328Y-58129221D01*
X67880025Y-58068884D01*
X68055405Y-57979524D01*
X68214646Y-57863828D01*
X68353828Y-57724646D01*
X68469524Y-57565405D01*
X68558884Y-57390025D01*
X68619709Y-57202826D01*
X68629619Y-57140255D01*
X68650500Y-57008422D01*
X68650500Y-56811577D01*
X68619709Y-56617173D01*
X68558945Y-56430164D01*
X68558884Y-56429975D01*
X68558882Y-56429972D01*
X68558882Y-56429970D01*
X68511743Y-56337455D01*
X68469524Y-56254595D01*
X68353828Y-56095354D01*
X68214646Y-55956172D01*
X68055405Y-55840476D01*
X67880029Y-55751117D01*
X67692826Y-55690290D01*
X67498422Y-55659500D01*
X67498417Y-55659500D01*
X67301583Y-55659500D01*
X67301577Y-55659500D01*
X67102544Y-55691023D01*
X67033251Y-55682068D01*
X66995466Y-55656231D01*
X66494819Y-55155584D01*
X66461334Y-55094261D01*
X66458500Y-55067903D01*
X66458500Y-52458191D01*
X66478185Y-52391152D01*
X66530989Y-52345397D01*
X66600147Y-52335453D01*
X66620815Y-52340260D01*
X66624364Y-52341413D01*
X66820639Y-52372500D01*
X66820640Y-52372500D01*
X67019360Y-52372500D01*
X67019361Y-52372500D01*
X67215636Y-52341413D01*
X67404632Y-52280005D01*
X67581694Y-52189787D01*
X67742464Y-52072981D01*
X67882981Y-51932464D01*
X67999787Y-51771694D01*
X68090005Y-51594632D01*
X68151413Y-51405636D01*
X68182500Y-51209361D01*
X68182500Y-51010639D01*
X68151413Y-50814364D01*
X68120709Y-50719866D01*
X68090006Y-50625370D01*
X68090005Y-50625367D01*
X67999786Y-50448305D01*
X67882981Y-50287536D01*
X67742464Y-50147019D01*
X67581694Y-50030213D01*
X67425218Y-49950484D01*
X67374423Y-49902510D01*
X67357628Y-49834689D01*
X67380165Y-49768554D01*
X67425218Y-49729515D01*
X67581694Y-49649787D01*
X67742464Y-49532981D01*
X67882981Y-49392464D01*
X67999787Y-49231694D01*
X68090005Y-49054632D01*
X68151413Y-48865636D01*
X68151511Y-48865014D01*
X68151861Y-48862811D01*
X68182500Y-48669360D01*
X68182500Y-48470639D01*
X68169329Y-48387480D01*
X68151413Y-48274364D01*
X68112440Y-48154417D01*
X68090006Y-48085370D01*
X68090005Y-48085367D01*
X67999786Y-47908305D01*
X67883087Y-47747682D01*
X73610000Y-47747682D01*
X73610000Y-47952317D01*
X73642009Y-48154417D01*
X73705244Y-48349031D01*
X73798141Y-48531350D01*
X73798147Y-48531359D01*
X73830523Y-48575921D01*
X73830524Y-48575922D01*
X74510000Y-47896446D01*
X74510000Y-47902661D01*
X74537259Y-48004394D01*
X74589920Y-48095606D01*
X74664394Y-48170080D01*
X74755606Y-48222741D01*
X74857339Y-48250000D01*
X74863553Y-48250000D01*
X74184076Y-48929474D01*
X74228650Y-48961859D01*
X74410968Y-49054755D01*
X74605582Y-49117990D01*
X74807683Y-49150000D01*
X75012317Y-49150000D01*
X75214417Y-49117990D01*
X75409031Y-49054755D01*
X75591349Y-48961859D01*
X75635921Y-48929474D01*
X74956447Y-48250000D01*
X74962661Y-48250000D01*
X75064394Y-48222741D01*
X75155606Y-48170080D01*
X75230080Y-48095606D01*
X75282741Y-48004394D01*
X75310000Y-47902661D01*
X75310000Y-47896447D01*
X75989474Y-48575921D01*
X76021859Y-48531349D01*
X76114755Y-48349031D01*
X76177990Y-48154417D01*
X76210000Y-47952317D01*
X76210000Y-47747682D01*
X76177990Y-47545582D01*
X76114755Y-47350968D01*
X76021859Y-47168650D01*
X75989474Y-47124077D01*
X75989474Y-47124076D01*
X75310000Y-47803551D01*
X75310000Y-47797339D01*
X75282741Y-47695606D01*
X75230080Y-47604394D01*
X75155606Y-47529920D01*
X75064394Y-47477259D01*
X74962661Y-47450000D01*
X74956446Y-47450000D01*
X75635922Y-46770524D01*
X75635921Y-46770523D01*
X75591359Y-46738147D01*
X75591350Y-46738141D01*
X75409031Y-46645244D01*
X75214417Y-46582009D01*
X75012317Y-46550000D01*
X74807683Y-46550000D01*
X74605582Y-46582009D01*
X74410968Y-46645244D01*
X74228644Y-46738143D01*
X74184077Y-46770523D01*
X74184077Y-46770524D01*
X74863554Y-47450000D01*
X74857339Y-47450000D01*
X74755606Y-47477259D01*
X74664394Y-47529920D01*
X74589920Y-47604394D01*
X74537259Y-47695606D01*
X74510000Y-47797339D01*
X74510000Y-47803553D01*
X73830524Y-47124077D01*
X73830523Y-47124077D01*
X73798143Y-47168644D01*
X73705244Y-47350968D01*
X73642009Y-47545582D01*
X73610000Y-47747682D01*
X67883087Y-47747682D01*
X67882981Y-47747536D01*
X67742464Y-47607019D01*
X67581694Y-47490213D01*
X67425218Y-47410484D01*
X67374423Y-47362510D01*
X67357628Y-47294689D01*
X67380165Y-47228554D01*
X67425218Y-47189515D01*
X67581694Y-47109787D01*
X67742464Y-46992981D01*
X67882981Y-46852464D01*
X67999787Y-46691694D01*
X68090005Y-46514632D01*
X68151413Y-46325636D01*
X68182500Y-46129361D01*
X68182500Y-45930639D01*
X68151413Y-45734364D01*
X68090005Y-45545368D01*
X68090005Y-45545367D01*
X68044035Y-45455149D01*
X67999787Y-45368306D01*
X67882981Y-45207536D01*
X67742464Y-45067019D01*
X67581694Y-44950213D01*
X67425218Y-44870484D01*
X67374423Y-44822510D01*
X67357628Y-44754689D01*
X67380165Y-44688554D01*
X67425218Y-44649515D01*
X67581694Y-44569787D01*
X67742464Y-44452981D01*
X67882981Y-44312464D01*
X67999787Y-44151694D01*
X68090005Y-43974632D01*
X68151413Y-43785636D01*
X68157060Y-43749983D01*
X73609500Y-43749983D01*
X73609500Y-44950001D01*
X73609501Y-44950018D01*
X73620000Y-45052796D01*
X73620001Y-45052799D01*
X73675185Y-45219331D01*
X73675186Y-45219334D01*
X73767288Y-45368656D01*
X73891344Y-45492712D01*
X74040666Y-45584814D01*
X74207203Y-45639999D01*
X74309991Y-45650500D01*
X75510008Y-45650499D01*
X75612797Y-45639999D01*
X75779334Y-45584814D01*
X75928656Y-45492712D01*
X76052712Y-45368656D01*
X76144814Y-45219334D01*
X76199999Y-45052797D01*
X76210500Y-44950009D01*
X76210499Y-43749992D01*
X76199999Y-43647203D01*
X76144814Y-43480666D01*
X76052712Y-43331344D01*
X75928656Y-43207288D01*
X75779334Y-43115186D01*
X75612797Y-43060001D01*
X75612795Y-43060000D01*
X75510010Y-43049500D01*
X74309998Y-43049500D01*
X74309981Y-43049501D01*
X74207203Y-43060000D01*
X74207200Y-43060001D01*
X74040668Y-43115185D01*
X74040663Y-43115187D01*
X73891342Y-43207289D01*
X73767289Y-43331342D01*
X73675187Y-43480663D01*
X73675186Y-43480666D01*
X73620001Y-43647203D01*
X73620001Y-43647204D01*
X73620000Y-43647204D01*
X73609500Y-43749983D01*
X68157060Y-43749983D01*
X68182500Y-43589361D01*
X68182500Y-43390639D01*
X68151413Y-43194364D01*
X68090005Y-43005368D01*
X68090005Y-43005367D01*
X67999786Y-42828305D01*
X67882981Y-42667536D01*
X67742464Y-42527019D01*
X67581694Y-42410213D01*
X67425218Y-42330484D01*
X67374423Y-42282510D01*
X67357628Y-42214689D01*
X67380165Y-42148554D01*
X67425218Y-42109515D01*
X67581694Y-42029787D01*
X67742464Y-41912981D01*
X67882981Y-41772464D01*
X67999787Y-41611694D01*
X68090005Y-41434632D01*
X68151413Y-41245636D01*
X68182500Y-41049361D01*
X68182500Y-40850639D01*
X68151413Y-40654364D01*
X68090005Y-40465368D01*
X68090005Y-40465367D01*
X67999786Y-40288305D01*
X67963230Y-40237990D01*
X67882981Y-40127536D01*
X67742464Y-39987019D01*
X67581694Y-39870213D01*
X67424667Y-39790203D01*
X67373872Y-39742229D01*
X67357077Y-39674408D01*
X67379614Y-39608273D01*
X67424669Y-39569234D01*
X67581422Y-39489364D01*
X67618715Y-39462268D01*
X67004094Y-38847647D01*
X67091571Y-38824208D01*
X67192930Y-38765689D01*
X67275689Y-38682930D01*
X67334208Y-38581571D01*
X67357647Y-38494094D01*
X67972268Y-39108715D01*
X67999362Y-39071425D01*
X68089542Y-38894437D01*
X68098235Y-38867682D01*
X73840000Y-38867682D01*
X73840000Y-39072317D01*
X73872009Y-39274417D01*
X73935244Y-39469031D01*
X74028141Y-39651350D01*
X74028147Y-39651359D01*
X74060523Y-39695921D01*
X74060524Y-39695922D01*
X74740000Y-39016446D01*
X74740000Y-39022661D01*
X74767259Y-39124394D01*
X74819920Y-39215606D01*
X74894394Y-39290080D01*
X74985606Y-39342741D01*
X75087339Y-39370000D01*
X75093553Y-39370000D01*
X74414076Y-40049474D01*
X74458650Y-40081859D01*
X74640968Y-40174755D01*
X74835582Y-40237990D01*
X75037683Y-40270000D01*
X75242317Y-40270000D01*
X75444417Y-40237990D01*
X75639031Y-40174755D01*
X75821349Y-40081859D01*
X75865921Y-40049474D01*
X75186447Y-39370000D01*
X75192661Y-39370000D01*
X75294394Y-39342741D01*
X75385606Y-39290080D01*
X75460080Y-39215606D01*
X75512741Y-39124394D01*
X75540000Y-39022661D01*
X75540000Y-39016447D01*
X76219474Y-39695921D01*
X76251859Y-39651349D01*
X76344755Y-39469031D01*
X76407990Y-39274417D01*
X76440000Y-39072317D01*
X76440000Y-38867682D01*
X76407990Y-38665582D01*
X76344755Y-38470968D01*
X76251859Y-38288650D01*
X76219474Y-38244077D01*
X76219474Y-38244076D01*
X75540000Y-38923551D01*
X75540000Y-38917339D01*
X75512741Y-38815606D01*
X75460080Y-38724394D01*
X75385606Y-38649920D01*
X75294394Y-38597259D01*
X75192661Y-38570000D01*
X75186446Y-38570000D01*
X75865922Y-37890524D01*
X75865921Y-37890523D01*
X75821359Y-37858147D01*
X75821350Y-37858141D01*
X75639031Y-37765244D01*
X75444417Y-37702009D01*
X75242317Y-37670000D01*
X75037683Y-37670000D01*
X74835582Y-37702009D01*
X74640968Y-37765244D01*
X74458644Y-37858143D01*
X74414077Y-37890523D01*
X74414077Y-37890524D01*
X75093554Y-38570000D01*
X75087339Y-38570000D01*
X74985606Y-38597259D01*
X74894394Y-38649920D01*
X74819920Y-38724394D01*
X74767259Y-38815606D01*
X74740000Y-38917339D01*
X74740000Y-38923553D01*
X74060524Y-38244077D01*
X74060523Y-38244077D01*
X74028143Y-38288644D01*
X73935244Y-38470968D01*
X73872009Y-38665582D01*
X73840000Y-38867682D01*
X68098235Y-38867682D01*
X68112267Y-38824498D01*
X68150924Y-38705523D01*
X68150924Y-38705520D01*
X68182000Y-38509321D01*
X68182000Y-38310678D01*
X68150924Y-38114479D01*
X68150924Y-38114476D01*
X68105963Y-37976101D01*
X68105962Y-37976099D01*
X68089543Y-37925564D01*
X67999358Y-37748567D01*
X67972268Y-37711283D01*
X67357647Y-38325904D01*
X67334208Y-38238429D01*
X67275689Y-38137070D01*
X67192930Y-38054311D01*
X67091571Y-37995792D01*
X67004093Y-37972352D01*
X67618715Y-37357730D01*
X67581432Y-37330641D01*
X67424668Y-37250765D01*
X67373872Y-37202790D01*
X67357077Y-37134969D01*
X67379615Y-37068834D01*
X67424667Y-37029796D01*
X67581694Y-36949787D01*
X67742464Y-36832981D01*
X67882981Y-36692464D01*
X67999787Y-36531694D01*
X68090005Y-36354632D01*
X68151413Y-36165636D01*
X68182500Y-35969361D01*
X68182500Y-35770639D01*
X68151413Y-35574364D01*
X68090005Y-35385368D01*
X68090005Y-35385367D01*
X68040762Y-35288723D01*
X67999787Y-35208306D01*
X67882981Y-35047536D01*
X67742464Y-34907019D01*
X67691488Y-34869983D01*
X73839500Y-34869983D01*
X73839500Y-36070001D01*
X73839501Y-36070018D01*
X73850000Y-36172796D01*
X73850001Y-36172799D01*
X73877662Y-36256272D01*
X73905186Y-36339334D01*
X73997288Y-36488656D01*
X74121344Y-36612712D01*
X74270666Y-36704814D01*
X74437203Y-36759999D01*
X74539991Y-36770500D01*
X75740008Y-36770499D01*
X75842797Y-36759999D01*
X76009334Y-36704814D01*
X76158656Y-36612712D01*
X76282712Y-36488656D01*
X76374814Y-36339334D01*
X76429999Y-36172797D01*
X76440500Y-36070009D01*
X76440499Y-34869992D01*
X76432349Y-34790213D01*
X76429999Y-34767203D01*
X76429998Y-34767200D01*
X76407728Y-34699994D01*
X76374814Y-34600666D01*
X76282712Y-34451344D01*
X76158656Y-34327288D01*
X76009334Y-34235186D01*
X75842797Y-34180001D01*
X75842795Y-34180000D01*
X75740010Y-34169500D01*
X74539998Y-34169500D01*
X74539981Y-34169501D01*
X74437203Y-34180000D01*
X74437200Y-34180001D01*
X74270668Y-34235185D01*
X74270663Y-34235187D01*
X74121342Y-34327289D01*
X73997289Y-34451342D01*
X73905187Y-34600663D01*
X73905186Y-34600666D01*
X73850001Y-34767203D01*
X73850001Y-34767204D01*
X73850000Y-34767204D01*
X73839500Y-34869983D01*
X67691488Y-34869983D01*
X67581694Y-34790213D01*
X67404632Y-34699994D01*
X67404629Y-34699993D01*
X67215637Y-34638587D01*
X67117498Y-34623043D01*
X67019361Y-34607500D01*
X66820639Y-34607500D01*
X66755214Y-34617862D01*
X66624362Y-34638587D01*
X66435370Y-34699993D01*
X66435367Y-34699994D01*
X66258305Y-34790213D01*
X66097533Y-34907021D01*
X65957021Y-35047533D01*
X65840213Y-35208305D01*
X65749994Y-35385367D01*
X65749993Y-35385370D01*
X65688587Y-35574362D01*
X65657500Y-35770639D01*
X65657500Y-35969361D01*
X65660651Y-35989258D01*
X65688586Y-36165636D01*
X65689131Y-36167903D01*
X65689086Y-36168790D01*
X65689349Y-36170448D01*
X65689000Y-36170503D01*
X65688611Y-36178271D01*
X65692240Y-36187999D01*
X65686895Y-36212568D01*
X65685638Y-36237685D01*
X65679200Y-36247942D01*
X65677388Y-36256272D01*
X65656238Y-36284526D01*
X65489286Y-36451478D01*
X65489285Y-36451478D01*
X65489284Y-36451479D01*
X65377479Y-36563284D01*
X65357421Y-36598026D01*
X65348943Y-36612712D01*
X65298423Y-36700215D01*
X65257499Y-36852943D01*
X65257499Y-37011057D01*
X65257499Y-37011059D01*
X65257500Y-37021053D01*
X65257500Y-55281330D01*
X65257499Y-55281348D01*
X65257499Y-55447054D01*
X65257498Y-55447054D01*
X60982800Y-55447054D01*
X60982800Y-54821360D01*
X60982801Y-54821347D01*
X60982801Y-54653244D01*
X60941876Y-54500514D01*
X60941873Y-54500509D01*
X60862824Y-54363590D01*
X60862818Y-54363582D01*
X52943762Y-46444527D01*
X52910277Y-46383204D01*
X52910843Y-46330478D01*
X52910651Y-46330448D01*
X52910857Y-46329143D01*
X52910871Y-46327891D01*
X52911409Y-46325646D01*
X52911413Y-46325636D01*
X52942500Y-46129361D01*
X52942500Y-45930639D01*
X52911413Y-45734364D01*
X52850005Y-45545368D01*
X52850005Y-45545367D01*
X52804035Y-45455149D01*
X52759787Y-45368306D01*
X52642981Y-45207536D01*
X52502464Y-45067019D01*
X52341694Y-44950213D01*
X52185218Y-44870484D01*
X52134423Y-44822510D01*
X52117628Y-44754689D01*
X52140165Y-44688554D01*
X52185218Y-44649515D01*
X52341694Y-44569787D01*
X52502464Y-44452981D01*
X52642981Y-44312464D01*
X52759787Y-44151694D01*
X52850005Y-43974632D01*
X52911413Y-43785636D01*
X52942500Y-43589361D01*
X52942500Y-43390639D01*
X52911413Y-43194364D01*
X52850005Y-43005368D01*
X52850005Y-43005367D01*
X52759786Y-42828305D01*
X52642981Y-42667536D01*
X52502464Y-42527019D01*
X52341694Y-42410213D01*
X52185218Y-42330484D01*
X52134423Y-42282510D01*
X52117628Y-42214689D01*
X52140165Y-42148554D01*
X52185218Y-42109515D01*
X52341694Y-42029787D01*
X52502464Y-41912981D01*
X52642981Y-41772464D01*
X52759787Y-41611694D01*
X52850005Y-41434632D01*
X52911413Y-41245636D01*
X52942500Y-41049361D01*
X52942500Y-40850639D01*
X52911413Y-40654364D01*
X52850005Y-40465368D01*
X52850005Y-40465367D01*
X52759786Y-40288305D01*
X52723230Y-40237990D01*
X52642981Y-40127536D01*
X52502464Y-39987019D01*
X52341694Y-39870213D01*
X52185218Y-39790484D01*
X52134423Y-39742510D01*
X52117628Y-39674689D01*
X52140165Y-39608554D01*
X52185218Y-39569515D01*
X52341694Y-39489787D01*
X52502464Y-39372981D01*
X52642981Y-39232464D01*
X52759787Y-39071694D01*
X52850005Y-38894632D01*
X52911413Y-38705636D01*
X52942500Y-38509361D01*
X52942500Y-38310639D01*
X52911413Y-38114364D01*
X52866489Y-37976101D01*
X52850006Y-37925370D01*
X52850005Y-37925367D01*
X52768417Y-37765244D01*
X52759787Y-37748306D01*
X52642981Y-37587536D01*
X52502464Y-37447019D01*
X52341694Y-37330213D01*
X52185218Y-37250484D01*
X52134423Y-37202510D01*
X52117628Y-37134689D01*
X52140165Y-37068554D01*
X52185218Y-37029515D01*
X52341694Y-36949787D01*
X52502464Y-36832981D01*
X52642981Y-36692464D01*
X52759787Y-36531694D01*
X52850005Y-36354632D01*
X52911413Y-36165636D01*
X52942500Y-35969361D01*
X52942500Y-35770639D01*
X52911413Y-35574364D01*
X52850005Y-35385368D01*
X52850005Y-35385367D01*
X52800762Y-35288723D01*
X52759787Y-35208306D01*
X52642981Y-35047536D01*
X52502464Y-34907019D01*
X52341694Y-34790213D01*
X52164632Y-34699994D01*
X52164629Y-34699993D01*
X51975637Y-34638587D01*
X51877498Y-34623043D01*
X51779361Y-34607500D01*
X51580639Y-34607500D01*
X51515214Y-34617862D01*
X51384362Y-34638587D01*
X51195370Y-34699993D01*
X51195367Y-34699994D01*
X51018305Y-34790213D01*
X50857533Y-34907021D01*
X50717021Y-35047533D01*
X50600213Y-35208305D01*
X50509994Y-35385367D01*
X50509993Y-35385370D01*
X50448587Y-35574362D01*
X50417500Y-35770639D01*
X38900659Y-35770639D01*
X38906894Y-35656660D01*
X38908429Y-35642856D01*
X38962030Y-35324675D01*
X38965099Y-35311144D01*
X39054006Y-35000963D01*
X39058570Y-34987864D01*
X39181664Y-34689586D01*
X39187665Y-34677084D01*
X39343388Y-34394485D01*
X39350774Y-34382700D01*
X39537162Y-34119336D01*
X39545806Y-34108470D01*
X39760529Y-33867633D01*
X39770346Y-33857795D01*
X39796983Y-33833938D01*
X40010684Y-33642536D01*
X40021541Y-33633857D01*
X40284482Y-33446869D01*
X40296241Y-33439463D01*
X40578484Y-33283100D01*
X40590986Y-33277065D01*
X40888964Y-33153302D01*
X40902067Y-33148703D01*
X41212033Y-33059096D01*
X41225570Y-33055993D01*
X41543626Y-33001668D01*
X41557430Y-33000102D01*
X41883036Y-32981549D01*
X41889973Y-32981349D01*
X42959646Y-32980500D01*
X79560602Y-32980500D01*
X79581274Y-32982235D01*
G37*
%TD.AperFunction*%
%TD*%
M02*
