%TF.GenerationSoftware,KiCad,Pcbnew,10.0.3*%
%TF.CreationDate,2026-06-29T14:01:58-05:00*%
%TF.ProjectId,reactive-led-board,72656163-7469-4766-952d-6c65642d626f,rev?*%
%TF.SameCoordinates,Original*%
%TF.FileFunction,Soldermask,Bot*%
%TF.FilePolarity,Negative*%
%FSLAX46Y46*%
G04 Gerber Fmt 4.6, Leading zero omitted, Abs format (unit mm)*
G04 Created by KiCad (PCBNEW 10.0.3) date 2026-06-29 14:01:58*
%MOMM*%
%LPD*%
G01*
G04 APERTURE LIST*
G04 Aperture macros list*
%AMRoundRect*
0 Rectangle with rounded corners*
0 $1 Rounding radius*
0 $2 $3 $4 $5 $6 $7 $8 $9 X,Y pos of 4 corners*
0 Add a 4 corners polygon primitive as box body*
4,1,4,$2,$3,$4,$5,$6,$7,$8,$9,$2,$3,0*
0 Add four circle primitives for the rounded corners*
1,1,$1+$1,$2,$3*
1,1,$1+$1,$4,$5*
1,1,$1+$1,$6,$7*
1,1,$1+$1,$8,$9*
0 Add four rect primitives between the rounded corners*
20,1,$1+$1,$2,$3,$4,$5,0*
20,1,$1+$1,$4,$5,$6,$7,0*
20,1,$1+$1,$6,$7,$8,$9,0*
20,1,$1+$1,$8,$9,$2,$3,0*%
G04 Aperture macros list end*
%ADD10C,2.154000*%
%ADD11R,1.700000X1.700000*%
%ADD12C,1.700000*%
%ADD13R,1.295400X1.295400*%
%ADD14C,1.295400*%
%ADD15C,1.524000*%
%ADD16C,1.500000*%
%ADD17RoundRect,0.250000X-0.550000X0.550000X-0.550000X-0.550000X0.550000X-0.550000X0.550000X0.550000X0*%
%ADD18C,1.600000*%
%ADD19C,1.400000*%
G04 APERTURE END LIST*
D10*
%TO.C,J1*%
X78190000Y-70350000D03*
X78190000Y-65350000D03*
X78190000Y-60350000D03*
%TD*%
D11*
%TO.C,J2*%
X54920000Y-60710000D03*
D12*
X54920000Y-63250000D03*
X54920000Y-65790000D03*
X54920000Y-68330000D03*
X54920000Y-70870000D03*
X54920000Y-73410000D03*
%TD*%
D13*
%TO.C,U2*%
X61330000Y-61460000D03*
D14*
X61330000Y-64000000D03*
X61330000Y-66540000D03*
X61330000Y-69080000D03*
X61330000Y-71620000D03*
X61330000Y-74160000D03*
X61330000Y-76700000D03*
X68950000Y-76700000D03*
X68950000Y-74160000D03*
X68950000Y-71620000D03*
X68950000Y-69080000D03*
X68950000Y-66540000D03*
X68950000Y-64000000D03*
X68950000Y-61460000D03*
%TD*%
D15*
%TO.C,U1*%
X51680000Y-35870000D03*
X51680000Y-38410000D03*
X51680000Y-40950000D03*
X51680000Y-43490000D03*
X51680000Y-46030000D03*
X51680000Y-48570000D03*
X51680000Y-51110000D03*
X66920000Y-51110000D03*
X66920000Y-48570000D03*
X66920000Y-46030000D03*
X66920000Y-43490000D03*
X66920000Y-40950000D03*
X66920000Y-38410000D03*
X66920000Y-35870000D03*
%TD*%
D16*
%TO.C,C1*%
X67400000Y-56910000D03*
X62400000Y-56910000D03*
%TD*%
D17*
%TO.C,C3*%
X74910000Y-44350000D03*
D18*
X74910000Y-47850000D03*
%TD*%
D17*
%TO.C,C2*%
X75140000Y-35470000D03*
D18*
X75140000Y-38970000D03*
%TD*%
D19*
%TO.C,R1*%
X71090000Y-65420000D03*
X72990000Y-65420000D03*
%TD*%
M02*
